<svg width="291" height="262" viewBox="0 0 291 262" fill="none" xmlns="http://www.w3.org/2000/svg">
<g clip-path="url(#clip0_7_8888)">
<path d="M104.776 121.381C73.5603 116.638 47.9972 121.381 23.2469 94.684C-0.161172 69.4639 3.11252 45.6979 22.0537 24.2884C71.532 -31.6404 133.471 31.7455 203.345 38.1587C264.233 43.7665 291.556 135.393 243.427 170.896C227.916 182.313 196.29 193.924 175.328 181.09C145.999 163.141 147.685 127.913 104.776 121.381Z" fill="#FCB90E"/>
<path opacity="0.9" d="M104.776 121.381C73.5603 116.638 47.9972 121.381 23.2469 94.684C-0.161172 69.4639 3.11252 45.6979 22.0537 24.2884C71.532 -31.6404 133.471 31.7455 203.345 38.1587C264.233 43.7665 291.556 135.393 243.427 170.896C227.916 182.313 196.29 193.924 175.328 181.09C145.999 163.141 147.685 127.913 104.776 121.381Z" fill="white"/>
<path d="M145.501 261.299C225.354 261.299 290.088 257.52 290.088 252.858C290.088 248.195 225.354 244.416 145.501 244.416C65.6478 244.416 0.914062 248.195 0.914062 252.858C0.914062 257.52 65.6478 261.299 145.501 261.299Z" fill="#F5F5F5"/>
<path d="M74.1797 250.606H78.4825L87.2148 9.82129H82.9046L74.1797 250.606Z" fill="#427F56"/>
<path d="M146.648 250.606H142.338L102.293 9.82129H106.603L146.648 250.606Z" fill="#427F56"/>
<path d="M52.002 250.605H56.3122L97.8038 1.24512H93.4936L52.002 250.605Z" fill="#427F56"/>
<path d="M85.2234 16.2637L104.627 16.2637V13.1839L85.2234 13.1839V16.2637Z" fill="#427F56"/>
<path d="M80.6896 163.565H129.243V160.21H80.6896V163.565Z" fill="#427F56"/>
<path d="M54.8452 42.5999L54.1016 42.6553L54.3569 46.0835L55.1006 46.0281L54.8452 42.5999Z" fill="#427F56"/>
<path d="M53.6353 26.3813L52.8916 26.4365L53.8024 38.6921L54.546 38.6369L53.6353 26.3813Z" fill="#427F56"/>
<path d="M64.008 141.477L65.4845 141.492L56.163 15.2053L54.6865 15.1904L64.008 141.477Z" fill="#427F56"/>
<path d="M65.4845 141.492L153.099 142.335L143.777 16.0477L56.1631 15.2051L65.4845 141.492Z" fill="#427F56"/>
<path opacity="0.8" d="M65.4845 141.492L153.099 142.335L143.777 16.0477L56.1631 15.2051L65.4845 141.492Z" fill="white"/>
<path d="M67.9828 140.769L151.548 140.813L142.51 16.7709L57.7441 16.7188L67.9828 140.769Z" fill="white"/>
<path d="M102.345 143.207H124.717C125.142 143.206 125.551 143.048 125.866 142.763C126.182 142.478 126.38 142.086 126.425 141.664L126.902 137.189H101.078L100.638 141.269C100.607 141.511 100.628 141.757 100.7 141.991C100.772 142.224 100.892 142.44 101.054 142.623C101.215 142.807 101.414 142.954 101.637 143.054C101.859 143.155 102.101 143.207 102.345 143.207Z" fill="#427F56"/>
<path d="M194.44 71.4243C193.603 71.1027 192.797 70.7059 192.032 70.2386C191.181 69.7241 190.301 69.1648 189.436 68.5533C187.699 67.3303 185.969 65.9806 184.254 64.5935C180.846 61.7971 179.19 60.6114 175.887 57.6211L172.486 60.6785C174.707 63.7816 177.152 66.7177 179.802 69.4631C181.42 71.1484 183.113 72.7815 184.947 74.355C185.864 75.1007 186.819 75.921 187.856 76.6518C188.967 77.4593 190.15 78.1633 191.39 78.7547C192.189 79.1236 193.027 79.3988 193.888 79.575C195.253 79.8589 196.672 79.7157 197.953 79.1648C198.76 78.7941 199.478 78.2521 200.055 77.5765C200.313 77.2746 200.542 76.9501 200.742 76.607C200.906 76.3087 201.07 75.9806 201.189 75.6973L201.346 75.2722L201.457 74.9217L201.592 74.4743L194.44 71.4243Z" fill="#974A06"/>
<path d="M181.681 117.749C183.105 109.486 185.238 105.273 186.23 103.662C187.02 101.38 188.169 99.5307 188.713 96.7268C188.161 86.4434 188.534 72.2151 189.668 69.881C190.317 68.8519 194.888 66.3463 195.253 66.2568C195.939 59.6796 200.592 53.9153 200.592 53.9153C201.782 53.8342 202.975 53.8342 204.164 53.9153C199.556 60.045 198.944 64.0048 198.579 65.6304C203.465 64.9461 208.417 64.8685 213.322 65.3993C214.649 58.8444 220.242 55.0487 220.242 55.0487C221.222 55.1666 222.187 55.3866 223.121 55.705C218.341 60.8653 217.453 64.0645 216.864 65.8467C218.87 66.145 221.152 69.9929 221.152 69.9929C217.886 83.2965 215.484 94.8849 215.425 97.741C215.365 100.597 216.514 99.9781 216.916 102.558C220.824 103.05 221.174 103.796 221.174 103.796C221.267 104.783 221.124 105.777 220.757 106.697C219.438 106.223 218.065 105.915 216.67 105.78C212.994 125.347 207.848 144.125 207.468 163.028L166.894 161.902C166.894 161.902 176.163 126.72 181.681 117.749Z" fill="white"/>
<path d="M178.415 59.0007L177.282 54.3623L170.854 57.8001C170.854 57.8001 172.845 63.1021 175.827 62.6174L177.647 61.2229C177.976 60.9666 178.224 60.6202 178.361 60.2258C178.497 59.8313 178.516 59.4057 178.415 59.0007Z" fill="#974A06"/>
<path d="M173.5 49.4932L169.697 55.2352L170.838 57.8004L177.281 54.3627L173.5 49.4932Z" fill="#974A06"/>
<path d="M220.526 39.5234C218.751 43.9157 216.223 51.9993 218.691 55.1835C215.805 57.4206 212.106 59.9784 206.842 59.8069C201.577 59.6354 203.232 56.0783 205.007 54.2439C210.16 53.4012 210.787 49.7099 210.637 46.1976L220.526 39.5234Z" fill="#974A06"/>
<path d="M206.126 29.2686C206.168 29.2921 206.216 29.3045 206.264 29.3045C206.312 29.3045 206.36 29.2921 206.402 29.2686C206.715 29.0861 207.069 28.9826 207.431 28.967C207.794 28.9515 208.154 29.0242 208.482 29.1791C208.516 29.1974 208.553 29.2088 208.591 29.2127C208.63 29.2166 208.668 29.2129 208.705 29.2018C208.742 29.1907 208.776 29.1724 208.805 29.1481C208.835 29.1237 208.86 29.0937 208.878 29.0598C208.913 28.9933 208.921 28.9157 208.9 28.8434C208.879 28.7711 208.831 28.7097 208.766 28.6721C208.352 28.4752 207.897 28.3806 207.439 28.3962C206.981 28.4118 206.533 28.5371 206.133 28.7615C206.1 28.7788 206.07 28.8026 206.046 28.8316C206.021 28.8606 206.003 28.8941 205.992 28.9303C205.981 28.9664 205.977 29.0044 205.981 29.042C205.985 29.0797 205.996 29.1161 206.014 29.1493C206.037 29.2007 206.076 29.2428 206.126 29.2686Z" fill="#263238"/>
<path d="M206.439 31.9463C205.558 33.2956 204.497 34.5176 203.284 35.5779C203.567 35.8846 203.915 36.1251 204.301 36.2823C204.688 36.4396 205.104 36.5097 205.521 36.4877L206.439 31.9463Z" fill="#ED893E"/>
<path d="M206.439 32.1036C206.342 32.5808 205.999 32.9239 205.693 32.8493C205.388 32.7747 205.209 32.3347 205.306 31.8575C205.403 31.3802 205.746 31.0372 206.051 31.1118C206.357 31.1863 206.544 31.6188 206.439 32.1036Z" fill="#263238"/>
<path d="M222.845 33.9519C221.241 39.7834 220.607 43.2734 216.991 45.6821C211.547 49.3062 204.828 45.078 204.649 38.8886C204.493 33.3106 207.132 24.72 213.404 23.579C214.785 23.3196 216.21 23.4179 217.543 23.8647C218.876 24.3114 220.072 25.0917 221.019 26.1312C221.965 27.1708 222.629 28.4352 222.949 29.8041C223.268 31.173 223.233 32.6008 222.845 33.9519Z" fill="#974A06"/>
<path d="M210.212 34.9294C209.665 36.0887 209.399 37.3605 209.435 38.6419C209.472 39.9233 209.809 41.1781 210.421 42.3045C211.622 44.7505 212.554 46.2419 217.177 47.0175C221.801 47.793 220.242 41.432 222.397 38.9041C224.552 36.3761 232.211 28.464 224.463 26.4804C226.126 20.634 221.927 18.6877 216.573 20.3059C211.219 21.9241 203.971 23.9226 204.955 20.6788C204.955 20.6788 198.572 28.7176 212.412 27.7631C207.856 31.6557 210.212 34.9294 210.212 34.9294Z" fill="#263238"/>
<path d="M212.822 21.0738C215.291 19.9243 218.027 19.4705 220.734 19.7613C225.06 20.1193 228.46 22.3714 229.683 28.3967C230.906 34.4221 230.056 39.6496 227.133 39.1276C226.171 37.9121 222.211 41.141 222.211 41.141C221.383 42.7891 215.731 38.5981 213.307 33.8106C210.884 29.0231 209.31 21.6331 212.822 21.0738Z" fill="#FCB90E"/>
<path opacity="0.3" d="M212.822 21.0738C215.291 19.9243 218.027 19.4705 220.734 19.7613C225.06 20.1193 228.46 22.3714 229.683 28.3967C230.906 34.4221 230.056 39.6496 227.133 39.1276C226.171 37.9121 222.211 41.141 222.211 41.141C221.383 42.7891 215.731 38.5981 213.307 33.8106C210.884 29.0231 209.31 21.6331 212.822 21.0738Z" fill="white"/>
<path d="M210.377 21.4244C208.386 21.7525 209.094 28.0538 211.331 33.2291C213.568 38.4043 217.356 42.8861 221.227 43.505C221.551 43.2018 221.81 42.8359 221.988 42.4295C222.166 42.0232 222.26 41.5848 222.263 41.1411C221.189 40.3954 217.409 38.4491 213.934 31.4915C210.459 24.534 212.86 21.0515 212.86 21.0515C212.748 20.6041 210.377 21.4244 210.377 21.4244Z" fill="#FCB90E"/>
<path d="M212.122 34.9299C211.745 36.154 210.954 37.2086 209.885 37.9128C208.483 38.8151 207.506 37.7189 207.647 36.1678C207.789 34.7808 208.691 32.6331 210.205 32.3572C211.719 32.0813 212.569 33.4385 212.122 34.9299Z" fill="#974A06"/>
<path d="M197.781 246.638H191.688L192.904 232.529H198.996L197.781 246.638Z" fill="#974A06"/>
<path d="M190.876 245.967H198.296C198.418 245.966 198.536 246.007 198.631 246.083C198.727 246.159 198.792 246.266 198.818 246.385L200.019 251.798C200.048 251.93 200.047 252.067 200.016 252.198C199.985 252.329 199.924 252.451 199.839 252.556C199.753 252.66 199.645 252.743 199.523 252.799C199.4 252.855 199.266 252.883 199.131 252.88C196.738 252.842 195 252.701 191.987 252.701C190.138 252.701 186.066 252.895 183.509 252.895C180.951 252.895 180.623 250.367 181.667 250.135C186.357 249.106 188.378 247.697 189.87 246.34C190.147 246.095 190.506 245.962 190.876 245.967Z" fill="#263238"/>
<path opacity="0.2" d="M198.997 232.536H192.905L192.278 239.807H198.371L198.997 232.536Z" fill="black"/>
<path d="M173.747 46.2043C173.001 46.4355 173.135 46.8307 173.046 47.1812L172.86 48.2551L172.487 50.4027L171.801 54.713C171.587 56.1447 171.381 57.584 171.182 59.0307C171.018 60.4774 170.809 61.9166 170.675 63.3707C170.669 63.4645 170.698 63.5571 170.756 63.6308C170.814 63.7044 170.898 63.7539 170.99 63.7696C171.083 63.7854 171.178 63.7663 171.258 63.716C171.337 63.6658 171.395 63.5879 171.42 63.4975C171.801 62.0881 172.106 60.6712 172.449 59.2544C172.792 57.8375 173.076 56.4132 173.367 54.9889L174.217 50.7159L174.612 48.5683L174.813 47.5019C174.813 47.1365 175.112 46.8158 174.493 46.3311C174.388 46.2517 174.265 46.1987 174.135 46.1766C174.005 46.1546 173.872 46.1641 173.747 46.2043Z" fill="#263238"/>
<path d="M173.964 46.585C174.747 46.7341 176.201 46.2494 175.746 44.2658C175.291 42.2822 174.083 41.8124 175.641 40.3955C172.681 42.1032 171.346 46.063 173.964 46.585Z" fill="#FCB90E"/>
<path d="M227.923 60.4845C219.414 82.677 221.07 105.227 220.056 110L187.632 108.993C186.774 80.5144 191.495 62.4159 194.418 57.002C194.699 56.4704 195.099 56.0108 195.586 55.659C196.074 55.3071 196.636 55.0726 197.229 54.9736C198.087 54.8394 199.19 54.6902 200.428 54.556C201.331 54.4591 202.3 54.3696 203.314 54.3099C203.866 54.2726 204.433 54.2503 205.007 54.2354C209.585 54.2833 214.157 54.597 218.698 55.1749C219.548 55.2794 220.413 55.4061 221.249 55.5404C222.084 55.6746 222.777 55.8088 223.486 55.9505C224.388 56.122 225.231 56.3084 225.977 56.48C226.391 56.5788 226.778 56.7683 227.11 57.0349C227.442 57.3015 227.711 57.6385 227.897 58.0216C228.084 58.4046 228.183 58.8243 228.187 59.2501C228.191 59.676 228.101 60.0976 227.923 60.4845Z" fill="#FCB90E"/>
<path d="M190.608 69.0237L189.586 72.7523C214.232 80.7165 204.165 53.908 204.165 53.908C202.98 53.7442 201.778 53.7442 200.593 53.908C205.365 67.2414 200.846 73.759 190.608 69.0237Z" fill="white"/>
<path opacity="0.2" d="M203.956 63.2062C209.773 62.9974 212.577 73.4374 212.577 73.4374L211.831 73.9967L216.909 82.7813L210.943 86.2563L205.373 77.7029L203.956 78.7544C201.547 76.8989 199.552 74.5594 198.102 71.8864C194.881 65.861 196.902 63.4448 203.956 63.2062Z" fill="black"/>
<path d="M219.146 83.7368C219.087 83.23 218.977 82.7304 218.818 82.2453C218.747 82.02 218.665 81.7985 218.572 81.5817L218.348 81.082C217.923 80.135 217.506 79.173 217.036 78.2558C216.106 76.4026 215.078 74.6004 213.956 72.8568C212.84 71.1155 211.636 69.4329 210.347 67.8157C209.69 67.0104 209.027 66.2199 208.326 65.4444C207.983 65.0491 207.617 64.6986 207.259 64.281L206.685 63.7068L206.051 63.0879L199.675 69.7993L200.496 70.6867C200.794 71.0074 201.092 71.3281 201.391 71.6636C201.98 72.3273 202.561 73.0208 203.128 73.7143C204.284 75.1014 205.365 76.5332 206.454 77.9948C207.543 79.4564 208.542 80.9776 209.474 82.4691C209.937 83.1775 210.347 83.9083 210.772 84.6391C210.226 85.0377 209.641 85.38 209.027 85.6607C207.443 86.3726 205.805 86.9562 204.127 87.4057C200.63 88.3826 196.857 89.1283 193.173 89.7995L193.359 94.3707C197.396 94.6372 201.448 94.5199 205.462 94.0202C207.596 93.7632 209.701 93.3063 211.749 92.6555C212.938 92.2749 214.079 91.7569 215.149 91.1119C215.814 90.7075 216.43 90.227 216.984 89.6801C217.703 88.977 218.276 88.138 218.669 87.2118C219.119 86.1124 219.283 84.9168 219.146 83.7368Z" fill="#974A06"/>
<path d="M195.335 89.3667L190.577 89.8589L193.113 96.6971C193.113 96.6971 198.638 95.4518 198.564 92.4316L197.43 90.4406C197.222 90.0783 196.913 89.784 196.541 89.5935C196.17 89.4029 195.75 89.3241 195.335 89.3667Z" fill="#974A06"/>
<path d="M186.29 92.1025L187.252 98.4411L193.113 96.7334L190.578 89.8877L186.29 92.1025Z" fill="#974A06"/>
<path d="M200.794 54.5122C206.589 55.1237 213.643 69.7546 213.643 69.7546L203.949 76.2423C203.949 76.2423 199.922 74.818 195.582 68.6733C190.384 61.2758 193.225 53.7292 200.794 54.5122Z" fill="#FCB90E"/>
<path d="M199.131 109.352C199.131 109.352 192.479 157.227 190.749 175.027C188.848 194.55 189.668 237.495 189.668 237.495H200.854C200.854 237.495 203.986 194.55 207.498 175.511C211.495 153.834 223.158 121.35 220.086 110.008L199.131 109.352Z" fill="#263238"/>
<path opacity="0.2" d="M201.137 123.61C200.734 123.745 198.96 123.953 197.095 124.259C195.745 134.296 193.963 147.727 192.576 159.062C197.737 150.031 202.539 132.619 201.137 123.61Z" fill="black"/>
<path d="M188.721 238.45H201.86L202.397 234.527L188.676 233.894L188.721 238.45Z" fill="#FCB90E"/>
<path opacity="0.2" d="M188.721 238.45H201.86L202.397 234.527L188.676 233.894L188.721 238.45Z" fill="black"/>
<path d="M188.855 246.996C189.393 246.982 189.928 246.909 190.451 246.78C190.479 246.774 190.505 246.759 190.525 246.738C190.545 246.717 190.558 246.69 190.562 246.661C190.567 246.632 190.563 246.603 190.551 246.576C190.539 246.55 190.52 246.527 190.495 246.511C190.272 246.377 188.31 245.169 187.632 245.512C187.558 245.552 187.496 245.611 187.453 245.684C187.409 245.756 187.386 245.838 187.386 245.922C187.373 246.061 187.393 246.202 187.445 246.331C187.497 246.461 187.579 246.576 187.684 246.668C188.026 246.907 188.439 247.023 188.855 246.996ZM190.033 246.571C188.996 246.78 188.206 246.743 187.87 246.467C187.799 246.402 187.743 246.32 187.71 246.229C187.676 246.139 187.665 246.041 187.676 245.945C187.676 245.825 187.729 245.788 187.766 245.773C188.116 245.594 189.235 246.116 190.033 246.571Z" fill="#FCB90E"/>
<path d="M190.421 246.78C190.441 246.78 190.461 246.776 190.479 246.768C190.497 246.76 190.513 246.748 190.527 246.733C190.54 246.719 190.55 246.701 190.556 246.682C190.563 246.663 190.565 246.643 190.563 246.623C190.563 246.549 190.414 244.796 189.705 244.215C189.62 244.144 189.521 244.091 189.415 244.059C189.308 244.027 189.197 244.016 189.086 244.028C188.978 244.03 188.874 244.068 188.791 244.138C188.708 244.207 188.652 244.303 188.631 244.409C188.504 245.087 189.72 246.422 190.346 246.765L190.421 246.78ZM189.191 244.312C189.311 244.315 189.427 244.36 189.519 244.438C189.952 244.986 190.212 245.651 190.264 246.347C189.638 245.87 188.862 244.856 188.937 244.461C188.937 244.424 188.937 244.342 189.146 244.319H189.213L189.191 244.312Z" fill="#FCB90E"/>
<path d="M193.173 240.449L187.274 242.507L184.09 229.054L189.996 226.996L193.173 240.449Z" fill="#974A06"/>
<path d="M186.574 242.887C186.536 242.827 185.828 241.343 184.866 241.015C184.731 240.967 184.587 240.946 184.444 240.954C184.301 240.961 184.16 240.998 184.031 241.06C183.733 241.209 183.658 241.388 183.658 241.537C183.654 241.567 183.654 241.597 183.658 241.627C183.8 242.313 185.619 243.044 186.425 243.118C186.456 243.13 186.49 243.13 186.522 243.118C186.542 243.109 186.561 243.094 186.575 243.077C186.59 243.059 186.6 243.038 186.605 243.016C186.61 242.993 186.61 242.97 186.604 242.948C186.599 242.925 186.588 242.905 186.574 242.887ZM183.949 241.575C183.944 241.541 183.949 241.507 183.964 241.476C183.979 241.446 184.002 241.42 184.031 241.403C184.07 241.371 184.112 241.343 184.158 241.321C184.262 241.269 184.377 241.241 184.493 241.239C184.59 241.242 184.685 241.26 184.777 241.291C185.387 241.632 185.876 242.153 186.179 242.783C185.321 242.611 184.031 241.985 183.949 241.575Z" fill="#FCB90E"/>
<path d="M186.514 243.066C186.533 243.048 186.547 243.026 186.555 243.001C186.563 242.976 186.564 242.949 186.558 242.924C186.552 242.895 186.538 242.869 186.516 242.849C186.495 242.829 186.468 242.816 186.439 242.812C186.126 242.767 183.404 242.454 182.852 243.095C182.798 243.155 182.762 243.228 182.746 243.307C182.73 243.386 182.736 243.467 182.763 243.543C182.794 243.67 182.854 243.787 182.94 243.886C183.026 243.984 183.134 244.061 183.255 244.11C184.09 244.43 185.641 243.595 186.491 243.073L186.514 243.066ZM183.113 243.245C183.486 242.939 184.903 242.954 185.969 243.051C184.791 243.722 183.829 244.02 183.359 243.834C183.279 243.803 183.207 243.753 183.151 243.688C183.095 243.623 183.057 243.545 183.038 243.461C183.022 243.435 183.013 243.405 183.013 243.375C183.013 243.345 183.022 243.315 183.038 243.289C183.067 243.268 183.1 243.252 183.135 243.245H183.113Z" fill="#FCB90E"/>
<path d="M186.804 242.066L193.038 239.762C193.152 239.719 193.277 239.716 193.392 239.754C193.508 239.792 193.607 239.869 193.672 239.971L196.655 244.632C196.731 244.745 196.78 244.873 196.798 245.008C196.817 245.143 196.804 245.28 196.76 245.409C196.717 245.538 196.645 245.656 196.549 245.752C196.453 245.849 196.336 245.922 196.208 245.967C193.97 246.757 190.645 247.831 187.818 248.875C184.507 250.098 184.53 250.247 180.645 251.679C178.303 252.551 176.774 250.418 177.662 249.844C181.771 247.212 182.576 246.861 185.551 243.036C185.867 242.599 186.302 242.263 186.804 242.066Z" fill="#263238"/>
<path opacity="0.2" d="M184.098 229.062L185.731 235.997L191.637 233.931L189.996 226.996L184.098 229.062Z" fill="black"/>
<path d="M185.328 170.784C190.496 157.816 208.945 109.635 208.945 109.635L187.632 108.972C187.632 108.972 173.464 148.763 167.893 167.093C162.076 186.153 182.986 234.446 182.986 234.446L193.71 231.098C193.71 231.098 180.16 183.752 185.328 170.784Z" fill="#263238"/>
<path d="M182.472 235.594L194.582 231.329L193.71 227.607L181.122 231.388L182.472 235.594Z" fill="#FCB90E"/>
<path opacity="0.2" d="M182.472 235.594L194.582 231.329L193.71 227.607L181.122 231.388L182.472 235.594Z" fill="black"/>
<path d="M187.26 101.976L186.917 105.309C201.988 105.712 208.983 107.48 208.983 107.48C209.177 106.476 209.289 105.459 209.318 104.437C203.815 102.327 193.375 101.857 187.26 101.976Z" fill="white"/>
<path d="M221.153 103.781L220.735 106.682C216.769 106.577 212.802 106.844 208.885 107.48C208.769 106.449 208.904 105.404 209.281 104.437C215.433 102.894 219.326 103.349 221.153 103.781Z" fill="white"/>
<path d="M223.121 55.6904L220.242 55.0342C220.734 66.4362 224.157 72.7449 224.157 72.7449C224.898 71.3577 225.354 69.8366 225.499 68.2706C223.71 64.3283 222.894 60.0138 223.121 55.6904Z" fill="white"/>
<path d="M207.312 107.48C207.058 108.345 208.997 107.942 209.281 107.659C209.564 107.375 212.718 103.99 211.026 103.803C209.333 103.617 209.199 103.99 209.199 103.99C208.583 103.602 207.875 103.386 207.148 103.363C205.97 103.348 207.841 105.712 207.312 107.48Z" fill="white"/>
<path d="M207.14 104.05C205.85 105.057 202.196 109.874 201.979 114.878C202.917 114.427 203.884 114.038 204.873 113.714C204.873 113.714 205.492 109.576 207.729 107.062L207.14 104.05Z" fill="white"/>
<path d="M210.474 104.415C211.637 106.018 214.889 112.67 215 118.181C214.168 117.338 213.291 116.539 212.375 115.787C212.375 115.787 211.399 110.455 209.393 106.839L210.474 104.415Z" fill="white"/>
<path d="M199.683 126.869H197.445L176.237 252.858H178.474L199.683 126.869Z" fill="#427F56"/>
<path d="M225.209 126.869H222.971L201.756 252.858H203.993L225.209 126.869Z" fill="#427F56"/>
<path opacity="0.2" d="M225.209 126.869H222.971L201.756 252.858H203.993L225.209 126.869Z" fill="black"/>
<path d="M228.103 126.869H230.34L251.555 252.858H249.318L228.103 126.869Z" fill="#427F56"/>
<path d="M202.584 126.869H204.821L226.037 252.858H223.8L202.584 126.869Z" fill="#427F56"/>
<path d="M199.654 121.351H228.14C228.733 121.351 229.302 121.586 229.722 122.006C230.141 122.425 230.377 122.994 230.377 123.588V126.899H197.446V123.588C197.446 123 197.678 122.435 198.091 122.016C198.504 121.598 199.065 121.358 199.654 121.351Z" fill="#427F56"/>
</g>
<defs>
<clipPath id="clip0_7_8888">
<rect width="289.338" height="261.001" fill="white" transform="translate(0.831055 0.626953)"/>
</clipPath>
</defs>
</svg>
