<svg width="25" height="25" viewBox="0 0 25 25" fill="none" xmlns="http://www.w3.org/2000/svg">
<path d="M16.375 10.127L18.5244 10.7718C19.8976 11.1837 20.5842 11.3897 20.9796 11.9212C21.375 12.4526 21.375 13.1694 21.375 14.6031V22.127" stroke="#586261" stroke-width="1.5" stroke-linejoin="round"/>
<path d="M8.375 9.12695L11.375 9.12695M8.375 13.127L11.375 13.127" stroke="#586261" stroke-width="1.5" stroke-linecap="round" stroke-linejoin="round"/>
<path d="M12.375 22.127V19.127C12.375 18.1841 12.375 17.7127 12.0821 17.4198C11.7892 17.127 11.3178 17.127 10.375 17.127H9.375C8.43219 17.127 7.96079 17.127 7.66789 17.4198C7.375 17.7127 7.375 18.1841 7.375 19.127V22.127" stroke="#586261" stroke-width="1.5" stroke-linejoin="round"/>
<path d="M2.375 22.127L22.375 22.127" stroke="#586261" stroke-width="1.5" stroke-linecap="round"/>
<path d="M3.375 22.127V6.8442C3.375 4.33344 3.375 3.07807 4.16618 2.4552C4.95737 1.83233 6.12242 2.1705 8.45252 2.84685L13.4525 4.29817C14.8586 4.70632 15.5617 4.91039 15.9683 5.46661C16.375 6.02282 16.375 6.78039 16.375 8.29552V22.127" stroke="#586261" stroke-width="1.5" stroke-linecap="round" stroke-linejoin="round"/>
</svg>
