<svg width="201" height="200" viewBox="0 0 201 200" fill="none" xmlns="http://www.w3.org/2000/svg">
<path d="M109.7 59.4798C92.9758 64.9118 79.5318 37.1278 64.0078 34.0878C46.4998 30.6598 35.6678 43.9999 34.3598 60.6278C31.6158 95.4278 63.8718 131.348 96.4878 138.112C131.08 145.288 158.336 111.78 159.884 79.1598C160.508 66.0038 157.128 43.7598 142.404 38.4358C121.392 30.8358 124.628 54.6238 109.7 59.4798Z" fill="#336243"/>
<path opacity="0.9" d="M109.7 59.4798C92.9758 64.9118 79.5318 37.1278 64.0078 34.0878C46.4998 30.6598 35.6678 43.9999 34.3598 60.6278C31.6158 95.4278 63.8718 131.348 96.4878 138.112C131.08 145.288 158.336 111.78 159.884 79.1598C160.508 66.0038 157.128 43.7598 142.404 38.4358C121.392 30.8358 124.628 54.6238 109.7 59.4798Z" fill="white"/>
<path d="M100.5 171.025C143.333 171.025 178.056 168.997 178.056 166.497C178.056 163.996 143.333 161.969 100.5 161.969C57.6673 161.969 22.9443 163.996 22.9443 166.497C22.9443 168.997 57.6673 171.025 100.5 171.025Z" fill="#F5F5F5"/>
<path d="M130.6 84.9117C130.3 87.2477 129.972 89.5957 129.624 91.9317L128.58 99.0357C128.418 99.8989 128.073 100.717 127.568 101.436C127.106 102.08 126.549 102.651 125.916 103.128C124.8 103.941 123.56 104.568 122.244 104.984C121.035 105.38 119.794 105.672 118.536 105.856C117.916 105.952 117.3 106.016 116.68 106.068C116.06 106.12 115.46 106.152 114.8 106.152L114.596 103.896C115.672 103.648 116.812 103.36 117.88 103.004C118.938 102.675 119.972 102.274 120.976 101.804C121.888 101.396 122.736 100.857 123.492 100.204C123.787 99.9358 124.039 99.6242 124.24 99.2797C124.386 99.0073 124.474 98.7078 124.5 98.3997L124.616 96.7157C124.656 96.1157 124.712 95.5157 124.764 94.9237C124.868 93.7317 124.986 92.5437 125.12 91.3597C125.38 88.9837 125.688 86.6277 126.06 84.2637L130.6 84.9117Z" fill="#E4897B"/>
<path d="M128.012 81.3331C128.012 81.3331 124.452 90.4451 127.832 107.417H143.976C144.084 104.937 142.528 92.8531 144.92 81.1771C143.135 80.833 141.33 80.6058 139.516 80.4971C137.231 80.363 134.941 80.363 132.656 80.4971C131.088 80.6538 129.536 80.9333 128.012 81.3331Z" fill="#FF7650"/>
<path opacity="0.2" d="M128.012 81.3331C128.012 81.3331 124.452 90.4451 127.832 107.417H143.976C144.084 104.937 142.528 92.8531 144.92 81.1771C143.135 80.833 141.33 80.6058 139.516 80.4971C137.231 80.363 134.941 80.363 132.656 80.4971C131.088 80.6538 129.536 80.9333 128.012 81.3331Z" fill="black"/>
<path d="M131.596 83.3968C132.612 86.0968 130.176 95.1488 130.176 95.1488L123.472 91.7968C123.472 91.7968 123.788 87.2848 125.324 83.7968C126.86 80.3088 130.5 80.4368 131.596 83.3968Z" fill="#FF7650"/>
<path opacity="0.2" d="M131.596 83.3968C132.612 86.0968 130.176 95.1488 130.176 95.1488L123.472 91.7968C123.472 91.7968 123.788 87.2848 125.324 83.7968C126.86 80.3088 130.5 80.4368 131.596 83.3968Z" fill="black"/>
<path d="M147.115 162.777H144.095L141.743 155.789H144.763L147.115 162.777Z" fill="#E4897B"/>
<path d="M122.06 155.789L122.472 159.393H125.492L125.076 155.789H122.06Z" fill="#CE6F64"/>
<path d="M144.763 155.789H141.743L142.959 159.393H145.975L144.763 155.789Z" fill="#CE6F64"/>
<path d="M133.559 107.416C133.559 107.416 127.559 124.216 129.443 132.86C131.499 142.32 141.539 158.692 141.539 158.692H147.067C147.067 158.692 139.671 143.092 138.495 133.72C137.219 123.552 143.975 114.976 143.975 107.416H133.559Z" fill="#FF7650"/>
<path opacity="0.7" d="M133.559 107.416C133.559 107.416 127.559 124.216 129.443 132.86C131.499 142.32 141.539 158.692 141.539 158.692H147.067C147.067 158.692 139.671 143.092 138.495 133.72C137.219 123.552 143.975 114.976 143.975 107.416H133.559Z" fill="black"/>
<path d="M125.876 162.777H122.86L122.056 155.789H125.076L125.876 162.777Z" fill="#E4897B"/>
<path d="M127.831 107.416C127.831 107.416 116.067 123.724 116.395 132.924C116.735 142.496 121.339 158.692 121.339 158.692H126.451C126.451 158.692 124.359 143.056 124.583 133.656C124.831 123.408 138.443 115.32 138.443 107.416H127.831Z" fill="#FF7650"/>
<path opacity="0.7" d="M127.831 107.416C127.831 107.416 116.067 123.724 116.395 132.924C116.735 142.496 121.339 158.692 121.339 158.692H126.451C126.451 158.692 124.359 143.056 124.583 133.656C124.831 123.408 138.443 115.32 138.443 107.416H127.831Z" fill="black"/>
<path d="M143.7 162.424H147.38C147.44 162.424 147.498 162.444 147.545 162.482C147.592 162.52 147.624 162.573 147.636 162.632L148.232 165.312C148.246 165.377 148.246 165.445 148.23 165.51C148.215 165.576 148.185 165.636 148.143 165.688C148.1 165.74 148.047 165.782 147.986 165.81C147.925 165.839 147.859 165.853 147.792 165.852C146.592 165.832 145.744 165.76 144.252 165.76C143.336 165.76 141.452 165.856 140.18 165.856C138.908 165.856 138.748 164.604 139.268 164.492C141.592 163.98 142.468 163.292 143.212 162.612C143.346 162.491 143.52 162.424 143.7 162.424Z" fill="#FF7650"/>
<path d="M122.899 162.424H126.195C126.256 162.424 126.314 162.445 126.362 162.483C126.409 162.52 126.442 162.573 126.455 162.632L127.051 165.312C127.066 165.377 127.065 165.444 127.05 165.509C127.035 165.574 127.005 165.635 126.963 165.687C126.921 165.739 126.868 165.78 126.808 165.809C126.748 165.838 126.682 165.852 126.615 165.852C125.415 165.832 123.707 165.76 122.215 165.76C120.467 165.76 118.959 165.856 116.911 165.856C115.671 165.856 115.311 164.604 115.847 164.492C118.207 163.972 120.135 163.92 122.175 162.66C122.39 162.515 122.641 162.434 122.899 162.424Z" fill="#FF7650"/>
<path d="M116.199 103.621L112.907 103.841L114.447 107.373C115.065 107.356 115.662 107.141 116.149 106.76C116.636 106.379 116.989 105.853 117.155 105.257L116.199 103.621Z" fill="#E4897B"/>
<path d="M111.128 104.956L112.956 107.428L114.448 107.372L112.908 103.84L111.128 104.956Z" fill="#E4897B"/>
<path opacity="0.2" d="M141.627 86.7559C142.155 84.0919 143.183 84.5519 144.155 85.8639C143.738 89.3961 143.546 92.9513 143.579 96.5079C142.899 95.3799 140.747 91.2199 141.627 86.7559Z" fill="black"/>
<path d="M138.835 72.7676C138.403 74.9756 137.971 79.0196 139.515 80.4956C139.515 80.4956 138.911 82.7316 134.807 82.7316C130.299 82.7316 132.655 80.4956 132.655 80.4956C135.115 79.9076 135.055 78.0956 134.623 76.3636L138.835 72.7676Z" fill="#E4897B"/>
<path d="M137.12 74.2363L134.624 76.3643C134.73 76.7573 134.801 77.1588 134.836 77.5643C135.776 77.4283 137.068 76.3963 137.168 75.4123C137.223 75.0207 137.207 74.6222 137.12 74.2363Z" fill="#CE6F64"/>
<path d="M133.48 64.2918C131.908 64.6638 130.252 69.2318 131.964 70.4918C133.676 71.7518 136.452 63.5998 133.48 64.2918Z" fill="#252929"/>
<path d="M139.475 70.1613C138.599 73.0253 138.231 74.7453 136.403 75.8853C133.659 77.6013 130.403 75.4093 130.403 72.3413C130.403 69.5773 131.839 65.3613 134.963 64.8853C135.65 64.7797 136.353 64.8512 137.005 65.0931C137.657 65.335 138.236 65.7392 138.688 66.2675C139.14 66.7959 139.449 67.4308 139.587 68.1122C139.725 68.7936 139.686 69.4989 139.475 70.1613Z" fill="#E4897B"/>
<path d="M138.588 72.9606C136.904 73.2246 135.576 66.9607 140 66.4767C145.364 65.8687 141.3 72.5366 138.588 72.9606Z" fill="#252929"/>
<path d="M140.724 67.9644C138.608 68.0044 132.42 66.7364 131.62 63.3044C131.292 61.8964 133.728 60.0564 136.184 60.3324C132.94 61.7564 135.488 64.0324 138.928 63.7324C142.86 63.3844 143.58 67.9124 140.724 67.9644Z" fill="#252929"/>
<path d="M141.664 66.7687C141.664 66.7687 143.8 66.6127 143.264 68.5167C143.171 68.1118 142.975 67.7379 142.695 67.4315C142.414 67.1251 142.059 66.8967 141.664 66.7687Z" fill="#252929"/>
<path d="M141.092 66.7013C141.092 66.7013 142.928 67.8093 143.3 65.8613C143.034 66.178 142.692 66.4215 142.305 66.5685C141.919 66.7155 141.501 66.7613 141.092 66.7013Z" fill="#252929"/>
<path d="M140.019 73.6796C139.478 74.202 138.752 74.4894 137.999 74.4796C137.003 74.4596 136.799 73.4996 137.307 72.7076C137.771 71.9956 138.851 71.1436 139.735 71.5476C140.619 71.9516 140.671 73.0276 140.019 73.6796Z" fill="#E4897B"/>
<path d="M140.56 158.812H147.788V156.868L139.708 156.744L140.56 158.812Z" fill="#FF7650"/>
<path d="M120.2 158.812H127.424V156.844L119.348 156.744L120.2 158.812Z" fill="#FF7650"/>
<path d="M134.872 69.9161C134.816 70.1521 134.644 70.3161 134.472 70.2761C134.3 70.2361 134.24 70.0161 134.296 69.7801C134.352 69.5441 134.524 69.3801 134.696 69.4201C134.868 69.4601 134.928 69.6801 134.872 69.9161Z" fill="#FF7650"/>
<path d="M132.196 69.2724C132.14 69.5124 131.968 69.6724 131.796 69.6364C131.624 69.6004 131.564 69.3764 131.62 69.1404C131.676 68.9044 131.848 68.7404 132.02 68.7764C132.192 68.8124 132.252 69.0364 132.196 69.2724Z" fill="#FF7650"/>
<path d="M133.019 69.5996C132.562 70.2551 132.017 70.8447 131.399 71.3516C131.533 71.506 131.699 71.6294 131.886 71.713C132.072 71.7966 132.275 71.8384 132.479 71.8356L133.019 69.5996Z" fill="#DE5753"/>
<path d="M133.551 72.7171C133.371 72.7164 133.191 72.6949 133.015 72.6531C132.997 72.6484 132.98 72.6366 132.97 72.6203C132.959 72.6039 132.956 72.5842 132.959 72.5651C132.962 72.5559 132.966 72.5473 132.972 72.5397C132.977 72.532 132.984 72.5256 132.993 72.5208C133.001 72.516 133.01 72.5128 133.019 72.5115C133.029 72.5102 133.038 72.5107 133.047 72.5131C133.34 72.5906 133.647 72.5976 133.944 72.5337C134.24 72.4697 134.517 72.3366 134.751 72.1451C134.765 72.1319 134.784 72.1246 134.803 72.125C134.822 72.1254 134.84 72.1333 134.853 72.1471C134.867 72.1609 134.874 72.1794 134.873 72.1985C134.873 72.2177 134.865 72.2359 134.851 72.2491C134.489 72.5568 134.027 72.723 133.551 72.7171Z" fill="#FF7650"/>
<path d="M135.916 69.2528C135.888 69.2514 135.862 69.2425 135.839 69.2269C135.816 69.2114 135.799 69.1899 135.788 69.1648C135.718 68.9962 135.609 68.8467 135.47 68.7291C135.331 68.6114 135.165 68.529 134.988 68.4888C134.969 68.4859 134.951 68.4793 134.935 68.4694C134.919 68.4596 134.906 68.4466 134.895 68.4313C134.884 68.416 134.876 68.3987 134.872 68.3804C134.868 68.3621 134.868 68.3432 134.872 68.3248C134.877 68.2872 134.898 68.2534 134.929 68.2309C134.959 68.2084 134.998 68.199 135.036 68.2048C135.256 68.2555 135.462 68.3587 135.635 68.5056C135.807 68.6525 135.942 68.8388 136.028 69.0488C136.036 69.0661 136.04 69.0848 136.041 69.1039C136.041 69.123 136.038 69.142 136.032 69.1598C136.025 69.1777 136.015 69.1941 136.002 69.208C135.989 69.2218 135.973 69.233 135.956 69.2408C135.943 69.2465 135.929 69.2505 135.916 69.2528Z" fill="#FF7650"/>
<path d="M131.3 68.0772C131.266 68.0783 131.233 68.0669 131.208 68.0452C131.179 68.0211 131.161 67.9867 131.157 67.9493C131.153 67.9119 131.164 67.8746 131.188 67.8452C131.329 67.6641 131.511 67.5199 131.721 67.4252C131.93 67.3304 132.158 67.2879 132.388 67.3012C132.425 67.3062 132.459 67.3258 132.482 67.3558C132.506 67.3857 132.516 67.4236 132.512 67.4612C132.51 67.4797 132.504 67.4975 132.495 67.5138C132.486 67.53 132.474 67.5443 132.46 67.5558C132.445 67.5674 132.428 67.5759 132.411 67.581C132.393 67.586 132.374 67.5875 132.356 67.5852C132.176 67.5793 131.997 67.616 131.835 67.6925C131.672 67.769 131.53 67.8831 131.42 68.0252C131.406 68.0433 131.387 68.0575 131.366 68.0666C131.345 68.0757 131.322 68.0793 131.3 68.0772Z" fill="#FF7650"/>
<path d="M142.695 162.952C142.485 162.971 142.275 162.917 142.099 162.8C142.045 162.754 142.004 162.695 141.978 162.629C141.952 162.563 141.943 162.491 141.951 162.42C141.951 162.379 141.962 162.339 141.983 162.304C142.004 162.268 142.035 162.24 142.071 162.22C142.403 162.048 143.379 162.644 143.491 162.716C143.503 162.724 143.512 162.735 143.518 162.748C143.524 162.76 143.526 162.775 143.523 162.788C143.521 162.802 143.514 162.815 143.504 162.825C143.494 162.835 143.481 162.842 143.467 162.844C143.215 162.91 142.956 162.946 142.695 162.952ZM142.247 162.328C142.215 162.326 142.183 162.333 142.155 162.348C142.14 162.356 142.128 162.367 142.119 162.381C142.111 162.395 142.107 162.412 142.107 162.428C142.101 162.477 142.106 162.526 142.124 162.571C142.141 162.617 142.17 162.657 142.207 162.688C142.543 162.844 142.925 162.864 143.275 162.744C142.963 162.541 142.614 162.4 142.247 162.328Z" fill="#FF7650"/>
<path d="M143.468 162.849C143.458 162.853 143.446 162.853 143.436 162.849C143.12 162.681 142.52 162.021 142.584 161.685C142.592 161.632 142.62 161.584 142.661 161.55C142.702 161.515 142.754 161.496 142.808 161.497C142.863 161.49 142.918 161.495 142.971 161.511C143.025 161.527 143.074 161.553 143.116 161.589C143.464 161.873 143.516 162.745 143.54 162.789C143.54 162.802 143.537 162.815 143.532 162.827C143.526 162.839 143.518 162.849 143.508 162.857C143.494 162.859 143.48 162.856 143.468 162.849ZM142.86 161.625H142.828C142.732 161.625 142.728 161.681 142.724 161.697C142.684 161.897 143.068 162.397 143.38 162.633C143.358 162.289 143.234 161.959 143.024 161.685C142.978 161.647 142.92 161.626 142.86 161.625Z" fill="#FF7650"/>
<path d="M121.628 162.953C121.369 162.977 121.109 162.912 120.892 162.769C120.843 162.726 120.806 162.672 120.783 162.612C120.76 162.551 120.752 162.486 120.76 162.421C120.762 162.382 120.774 162.344 120.794 162.311C120.814 162.277 120.842 162.249 120.876 162.229C121.244 162.025 122.456 162.629 122.596 162.713C122.608 162.72 122.618 162.731 122.625 162.744C122.631 162.757 122.634 162.771 122.632 162.785C122.63 162.8 122.624 162.814 122.614 162.825C122.604 162.836 122.59 162.843 122.576 162.845C122.264 162.911 121.946 162.947 121.628 162.953ZM121.08 162.329C121.034 162.326 120.988 162.336 120.948 162.357C120.934 162.365 120.922 162.375 120.913 162.389C120.905 162.402 120.9 162.418 120.9 162.433C120.896 162.476 120.901 162.518 120.917 162.558C120.932 162.597 120.956 162.633 120.988 162.661C121.176 162.825 121.672 162.853 122.336 162.745C121.944 162.536 121.519 162.395 121.08 162.329Z" fill="#FF7650"/>
<path d="M122.56 162.849H122.532C122.168 162.685 121.448 162.049 121.5 161.693C121.5 161.613 121.572 161.513 121.768 161.493C121.839 161.483 121.912 161.489 121.981 161.51C122.049 161.531 122.113 161.566 122.168 161.613C122.568 161.929 122.632 162.741 122.636 162.777C122.638 162.789 122.636 162.801 122.631 162.813C122.626 162.824 122.618 162.834 122.608 162.841C122.593 162.848 122.576 162.851 122.56 162.849ZM121.824 161.625H121.784C121.652 161.625 121.644 161.689 121.644 161.705C121.608 161.913 122.1 162.425 122.472 162.649C122.437 162.304 122.297 161.979 122.072 161.717C122.003 161.656 121.915 161.623 121.824 161.625Z" fill="#FF7650"/>
<path d="M122.375 84.5806C123.066 84.0965 123.846 83.7537 124.67 83.572C125.494 83.3903 126.346 83.3734 127.176 83.5221C128.007 83.6708 128.799 83.9822 129.509 84.4385C130.219 84.8947 130.831 85.4868 131.311 86.1806C132.708 85.2073 134.435 84.8288 136.111 85.1285C137.787 85.4282 139.276 86.3815 140.249 87.7786C141.223 89.1758 141.601 90.9024 141.301 92.5786C141.002 94.2548 140.048 95.7433 138.651 96.7166L128.099 104.057L120.763 93.5166C120.28 92.825 119.938 92.0445 119.757 91.2201C119.576 90.3958 119.56 89.5438 119.71 88.7132C119.86 87.8827 120.172 87.09 120.63 86.3807C121.087 85.6715 121.68 85.0597 122.375 84.5806Z" fill="#FF7650"/>
<path opacity="0.3" d="M122.375 84.5806C123.066 84.0965 123.846 83.7537 124.67 83.572C125.494 83.3903 126.346 83.3734 127.176 83.5221C128.007 83.6708 128.799 83.9822 129.509 84.4385C130.219 84.8947 130.831 85.4868 131.311 86.1806C132.708 85.2073 134.435 84.8288 136.111 85.1285C137.787 85.4282 139.276 86.3815 140.249 87.7786C141.223 89.1758 141.601 90.9024 141.301 92.5786C141.002 94.2548 140.048 95.7433 138.651 96.7166L128.099 104.057L120.763 93.5166C120.28 92.825 119.938 92.0445 119.757 91.2201C119.576 90.3958 119.56 89.5438 119.71 88.7132C119.86 87.8827 120.172 87.09 120.63 86.3807C121.087 85.6715 121.68 85.0597 122.375 84.5806Z" fill="white"/>
<path d="M108.388 95.4332C108.686 94.0754 109.512 92.8916 110.682 92.1416C111.853 91.3917 113.273 91.1369 114.632 91.4332C114.955 90.1021 115.786 88.9502 116.947 88.2238C118.108 87.4974 119.508 87.2543 120.846 87.5464C122.184 87.8385 123.355 88.6427 124.108 89.7869C124.861 90.9311 125.137 92.3246 124.876 93.6692L122.64 103.913L112.396 101.677C111.722 101.531 111.084 101.253 110.519 100.86C109.953 100.467 109.47 99.9658 109.098 99.3859C108.725 98.806 108.471 98.1584 108.349 97.4802C108.227 96.802 108.24 96.1064 108.388 95.4332Z" fill="#FF7650"/>
<path opacity="0.5" d="M108.388 95.4332C108.686 94.0754 109.512 92.8916 110.682 92.1416C111.853 91.3917 113.273 91.1369 114.632 91.4332C114.955 90.1021 115.786 88.9502 116.947 88.2238C118.108 87.4974 119.508 87.2543 120.846 87.5464C122.184 87.8385 123.355 88.6427 124.108 89.7869C124.861 90.9311 125.137 92.3246 124.876 93.6692L122.64 103.913L112.396 101.677C111.722 101.531 111.084 101.253 110.519 100.86C109.953 100.467 109.47 99.9658 109.098 99.3859C108.725 98.806 108.471 98.1584 108.349 97.4802C108.227 96.802 108.24 96.1064 108.388 95.4332Z" fill="white"/>
<path d="M114.704 99.1477C116.005 97.2044 118.026 95.8576 120.32 95.403C122.614 94.9485 124.995 95.4235 126.94 96.7237C127.574 95.7379 128.399 94.8885 129.365 94.225C130.332 93.5615 131.421 93.0972 132.569 92.8593C133.717 92.6215 134.901 92.6147 136.051 92.8395C137.202 93.0643 138.296 93.5161 139.27 94.1686C140.244 94.821 141.078 95.661 141.724 96.6395C142.37 97.618 142.814 98.7153 143.031 99.8674C143.248 101.02 143.233 102.203 142.987 103.35C142.741 104.496 142.27 105.582 141.6 106.544L131.784 121.2L117.124 111.38C116.16 110.737 115.332 109.91 114.689 108.947C114.045 107.984 113.598 106.903 113.373 105.766C113.149 104.63 113.15 103.46 113.379 102.324C113.607 101.189 114.057 100.109 114.704 99.1477Z" fill="#FF7650"/>
<path opacity="0.7" d="M114.704 99.1477C116.005 97.2044 118.026 95.8576 120.32 95.403C122.614 94.9485 124.995 95.4235 126.94 96.7237C127.574 95.7379 128.399 94.8885 129.365 94.225C130.332 93.5615 131.421 93.0972 132.569 92.8593C133.717 92.6215 134.901 92.6147 136.051 92.8395C137.202 93.0643 138.296 93.5161 139.27 94.1686C140.244 94.821 141.078 95.661 141.724 96.6395C142.37 97.618 142.814 98.7153 143.031 99.8674C143.248 101.02 143.233 102.203 142.987 103.35C142.741 104.496 142.27 105.582 141.6 106.544L131.784 121.2L117.124 111.38C116.16 110.737 115.332 109.91 114.689 108.947C114.045 107.984 113.598 106.903 113.373 105.766C113.149 104.63 113.15 103.46 113.379 102.324C113.607 101.189 114.057 100.109 114.704 99.1477Z" fill="white"/>
<path d="M146.067 83.5254C146.331 84.0854 146.547 84.5814 146.755 85.1254C146.963 85.6694 147.155 86.1734 147.363 86.7254C147.763 87.7854 148.095 88.8614 148.395 89.9614C148.706 91.0665 148.961 92.1866 149.159 93.3174L149.303 94.1774L149.407 95.0534C149.447 95.3454 149.463 95.6454 149.483 95.9414L149.515 96.3894V96.5014V96.6854C149.515 96.8294 149.515 96.9534 149.515 97.0854C149.437 97.872 149.209 98.6364 148.843 99.3374C148.561 99.9016 148.24 100.446 147.883 100.965C147.223 101.917 146.5 102.823 145.719 103.677C144.213 105.332 142.582 106.867 140.839 108.269L139.239 106.669C140.547 105.001 141.847 103.277 143.027 101.565C143.605 100.732 144.139 99.8698 144.627 98.9814C144.848 98.5818 145.04 98.1675 145.203 97.7414C145.322 97.4693 145.39 97.1778 145.403 96.8814C145.403 96.8614 145.403 96.8814 145.403 96.8814C145.403 96.9014 145.403 96.9054 145.403 96.8814V96.7894L145.347 96.4294C145.311 96.1854 145.279 95.9494 145.223 95.7014L145.079 94.9734L144.907 94.2374C144.667 93.2574 144.387 92.2734 144.071 91.2934C143.755 90.3134 143.411 89.3334 143.047 88.3574C142.871 87.8694 142.683 87.3854 142.491 86.9014L141.919 85.4934L146.067 83.5254Z" fill="#E4897B"/>
<path d="M145.547 81.3766C148.239 82.4126 150.171 92.2606 150.171 92.2606L143.771 94.7846C143.771 94.7846 141.623 89.8366 140.903 86.1766C140.131 82.3246 142.499 80.2006 145.547 81.3766Z" fill="#FF7650"/>
<path opacity="0.2" d="M145.547 81.3766C148.239 82.4126 150.171 92.2606 150.171 92.2606L143.771 94.7846C143.771 94.7846 141.623 89.8366 140.903 86.1766C140.131 82.3246 142.499 80.2006 145.547 81.3766Z" fill="black"/>
<path d="M139.939 106.221L136.979 107.021L139.431 109.993C139.431 109.993 141.803 108.765 141.291 107.433L139.939 106.221Z" fill="#E4897B"/>
<path d="M134.836 109.48L136.98 111.808L139.432 109.98L136.98 107.008L134.836 109.48Z" fill="#E4897B"/>
<path d="M77.8759 68.9481C77.8759 68.9481 79.4399 69.4961 76.3079 88.7401H62.9879C63.2119 83.3201 63.2199 79.9761 60.6279 68.8521C62.4926 68.4667 64.383 68.2181 66.2839 68.1081C68.2974 67.964 70.3185 67.964 72.3319 68.1081C74.9319 68.3441 77.8759 68.9481 77.8759 68.9481Z" fill="#FCB90E"/>
<path opacity="0.6" d="M77.8759 68.9481C77.8759 68.9481 79.4399 69.4961 76.3079 88.7401H62.9879C63.2119 83.3201 63.2199 79.9761 60.6279 68.8521C62.4926 68.4667 64.383 68.2181 66.2839 68.1081C68.2974 67.964 70.3185 67.964 72.3319 68.1081C74.9319 68.3441 77.8759 68.9481 77.8759 68.9481Z" fill="white"/>
<path d="M87.9918 79.9124C87.2838 80.5804 86.5438 81.2524 85.8038 81.8924C85.0638 82.5324 84.3078 83.1484 83.5478 83.6924C83.1807 83.958 82.7988 84.2024 82.4038 84.4244C82.1192 84.5927 81.8158 84.727 81.4998 84.8244L81.4478 84.6884L81.1998 84.0284C80.5769 82.2149 80.089 80.3579 79.7398 78.4724C79.5478 77.5204 79.4158 76.5564 79.2718 75.5964C79.1278 74.6364 79.0238 73.6444 78.9398 72.7324L75.5918 72.9444C75.6558 74.0364 75.7838 75.0324 75.9238 76.0724C76.0638 77.1124 76.2598 78.1164 76.4798 79.1364C76.9085 81.1885 77.5244 83.1969 78.3198 85.1364L78.6518 85.8724L78.7318 86.0524L78.7758 86.1444C78.7922 86.1854 78.8109 86.2255 78.8318 86.2644C78.9465 86.4964 79.0903 86.7128 79.2598 86.9084C79.4622 87.1395 79.7048 87.3319 79.9758 87.4764C80.2433 87.615 80.533 87.7057 80.8318 87.7444C81.2863 87.7932 81.7459 87.7441 82.1798 87.6004C82.7875 87.3943 83.3606 87.0976 83.8798 86.7204C84.3311 86.4002 84.7625 86.0529 85.1718 85.6804C86.6974 84.2574 88.0677 82.6765 89.2598 80.9644L87.9918 79.9124Z" fill="#E4897B"/>
<path d="M77.8764 68.9483C79.2284 69.2923 80.1724 74.8523 80.1724 74.8523L76.4484 77.3843C76.4484 77.3843 72.8764 71.7843 73.9164 70.2883C75.0004 68.7403 75.9044 68.4443 77.8764 68.9483Z" fill="#FCB90E"/>
<path opacity="0.6" d="M77.8764 68.9483C79.2284 69.2923 80.1724 74.8523 80.1724 74.8523L76.4484 77.3843C76.4484 77.3843 72.8764 71.7843 73.9164 70.2883C75.0004 68.7403 75.9044 68.4443 77.8764 68.9483Z" fill="white"/>
<path d="M70.5645 162.569H73.8445L74.0645 154.973H70.7845L70.5645 162.569Z" fill="#E4897B"/>
<path d="M73.9565 162.188H70.2725C70.2086 162.186 70.1465 162.208 70.0978 162.249C70.0491 162.291 70.0173 162.348 70.0085 162.412L69.5885 165.324C69.5812 165.397 69.5895 165.472 69.6127 165.542C69.6359 165.613 69.6736 165.677 69.7233 165.732C69.773 165.787 69.8337 165.831 69.9014 165.862C69.9691 165.892 70.0424 165.907 70.1165 165.908C71.4005 165.908 72.0205 165.812 73.6405 165.812C74.6365 165.812 76.6965 165.916 78.0765 165.916C79.4565 165.916 79.5245 164.552 78.9525 164.432C76.3805 163.876 75.3525 163.116 74.5045 162.388C74.3512 162.258 74.1571 162.187 73.9565 162.188Z" fill="#FCB90E"/>
<path d="M74.06 154.973L73.948 158.889H70.668L70.78 154.973H74.06Z" fill="#CE6F64"/>
<path d="M47.3446 142.229L49.8446 144.353L46.8926 146.985L44.3926 144.861L47.3446 142.229Z" fill="#CE6F64"/>
<path d="M75.1885 162.76C74.8417 162.752 74.4963 162.713 74.1565 162.644C74.1403 162.64 74.1255 162.632 74.1141 162.62C74.1028 162.608 74.0952 162.592 74.0925 162.576C74.0904 162.56 74.0931 162.544 74.1002 162.53C74.1074 162.516 74.1186 162.504 74.1325 162.496C74.2805 162.42 75.5885 161.752 75.9925 161.972C76.0295 161.994 76.0608 162.024 76.0838 162.06C76.1068 162.096 76.1207 162.137 76.1245 162.18C76.1329 162.249 76.1246 162.32 76.1003 162.385C76.0759 162.45 76.0362 162.509 75.9845 162.556C75.75 162.712 75.4693 162.784 75.1885 162.76ZM74.4125 162.532C75.1405 162.652 75.6805 162.62 75.8805 162.444C75.9141 162.412 75.9396 162.372 75.9549 162.329C75.9703 162.285 75.9749 162.238 75.9685 162.192C75.9678 162.175 75.9627 162.158 75.9536 162.143C75.9444 162.128 75.9317 162.116 75.9165 162.108C75.7005 162 74.9485 162.272 74.4125 162.532Z" fill="#FCB90E"/>
<path d="M74.1678 162.645C74.1536 162.65 74.1381 162.65 74.1238 162.645C74.1136 162.637 74.1053 162.627 74.0998 162.615C74.0942 162.603 74.0915 162.59 74.0918 162.577C74.0918 162.541 74.1718 161.657 74.5838 161.313C74.6424 161.263 74.7105 161.225 74.7842 161.203C74.8578 161.18 74.9352 161.173 75.0118 161.181C75.2278 161.181 75.2918 161.309 75.3038 161.397C75.3638 161.769 74.5918 162.477 74.1998 162.653L74.1678 162.645ZM74.9678 161.317C74.8692 161.316 74.7738 161.352 74.6998 161.417C74.4585 161.703 74.3118 162.056 74.2798 162.429C74.6798 162.185 75.2038 161.629 75.1678 161.409C75.1678 161.409 75.1678 161.333 75.0118 161.317H74.9678Z" fill="#FCB90E"/>
<path d="M76.3077 88.7403C76.3077 88.7403 78.8997 114 78.6797 124C78.4557 134.4 74.6437 158.128 74.6437 158.128H70.2117C70.2117 158.128 70.9117 135.008 70.5197 124.792C70.0917 113.656 66.5557 88.7363 66.5557 88.7363L76.3077 88.7403Z" fill="#FCB90E"/>
<path opacity="0.5" d="M76.3077 88.7403C76.3077 88.7403 78.8997 114 78.6797 124C78.4557 134.4 74.6437 158.128 74.6437 158.128H70.2117C70.2117 158.128 70.9117 135.008 70.5197 124.792C70.0917 113.656 66.5557 88.7363 66.5557 88.7363L76.3077 88.7403Z" fill="black"/>
<path d="M87.9561 79.7043L89.7281 76.9043L90.7321 80.0843C90.7321 80.0843 89.2801 81.6083 87.9641 81.2443L87.9561 79.7043Z" fill="#E4897B"/>
<path d="M41.624 147.333L44.124 149.457L49.844 144.353L47.344 142.229L41.624 147.333Z" fill="#E4897B"/>
<path d="M44.8081 149.201L42.3841 146.429C42.344 146.379 42.287 146.347 42.2242 146.337C42.1613 146.327 42.0971 146.341 42.0441 146.377L39.5721 147.977C39.5116 148.019 39.4608 148.074 39.4229 148.138C39.385 148.202 39.3609 148.272 39.3523 148.346C39.3436 148.42 39.3505 148.494 39.3725 148.565C39.3945 148.636 39.4312 148.701 39.4801 148.757C40.3401 149.709 40.8041 150.125 41.8801 151.345C42.5361 152.097 43.4161 153.261 44.3201 154.297C45.2241 155.333 46.3201 154.493 46.0161 153.981C44.7401 151.681 45.0481 150.873 45.0241 149.745C45.019 149.543 44.9424 149.35 44.8081 149.201Z" fill="#FCB90E"/>
<path d="M63.3239 58.9082C60.5239 62.0242 63.1199 69.0322 67.8799 66.2482C72.6399 63.4642 68.4559 60.8002 68.4559 60.8002L63.3239 58.9082Z" fill="#252929"/>
<path d="M63.5561 65.8553C63.5426 65.8551 63.5292 65.8522 63.5168 65.8467C63.5045 65.8412 63.4933 65.8333 63.4841 65.8233C62.2201 64.5673 61.5961 63.2473 61.6281 61.9033C61.6899 60.6776 62.2145 59.5211 63.0961 58.6673C63.1055 58.6576 63.1166 58.6499 63.129 58.6447C63.1414 58.6394 63.1547 58.6367 63.1681 58.6367C63.1816 58.6367 63.1949 58.6394 63.2072 58.6447C63.2196 58.6499 63.2308 58.6576 63.2401 58.6673C63.2498 58.6767 63.2575 58.6878 63.2628 58.7002C63.268 58.7126 63.2707 58.7259 63.2707 58.7393C63.2707 58.7528 63.268 58.7661 63.2628 58.7784C63.2575 58.7908 63.2498 58.802 63.2401 58.8113C62.4062 59.6327 61.9072 60.7347 61.8401 61.9033C61.8081 63.1873 62.4121 64.4553 63.6321 65.6713C63.6418 65.6806 63.6495 65.6918 63.6548 65.7042C63.66 65.7166 63.6627 65.7299 63.6627 65.7433C63.6627 65.7568 63.66 65.7701 63.6548 65.7824C63.6495 65.7948 63.6418 65.806 63.6321 65.8153C63.6232 65.8272 63.6118 65.837 63.5986 65.8439C63.5855 65.8508 63.571 65.8547 63.5561 65.8553Z" fill="#252929"/>
<path d="M69.7998 52.8366C69.4718 53.9046 71.9278 55.8246 71.3198 58.5286C70.9958 59.9726 71.6078 61.3286 72.2918 61.7286C72.9758 62.1286 75.5758 62.2966 76.1078 61.0606C75.2265 59.7381 74.7028 58.2098 74.5878 56.6246C74.3598 53.6846 70.7078 49.8806 69.7998 52.8366Z" fill="#252929"/>
<path d="M70.1518 51.7843C69.0078 49.7843 59.6438 51.6243 62.9518 58.2843C66.2598 64.9443 70.1518 51.7843 70.1518 51.7843Z" fill="#252929"/>
<path d="M66.8998 61.2969C67.2798 63.2449 67.6638 66.8089 66.2998 68.0969C66.2998 68.0969 66.8318 70.0689 70.4478 70.0689C74.4238 70.0689 72.3478 68.0969 72.3478 68.0969C70.1798 67.5769 70.2358 65.9689 70.6118 64.4569L66.8998 61.2969Z" fill="#E4897B"/>
<path d="M68.3964 62.5879L70.5964 64.4639C70.5012 64.8161 70.4383 65.1763 70.4084 65.5399C69.5804 65.4199 68.4404 64.5079 68.3524 63.6399C68.3048 63.2894 68.3197 62.9332 68.3964 62.5879Z" fill="#CE6F64"/>
<path d="M64.8322 57.7282C65.5962 60.8922 65.8522 62.2482 67.7562 63.6042C70.6242 65.6402 74.3442 64.0042 74.5562 60.6842C74.7362 57.6882 73.4562 53.0162 70.1002 52.2842C69.3581 52.117 68.5854 52.1435 67.8564 52.3612C67.1274 52.5788 66.4667 52.9803 65.9376 53.527C65.4086 54.0737 65.029 54.7473 64.8355 55.483C64.6419 56.2188 64.6408 56.9919 64.8322 57.7282Z" fill="#E4897B"/>
<path d="M69.828 158.288H75.028L75.412 156.628L69.584 156.428L69.828 158.288Z" fill="#FCB90E"/>
<path opacity="0.2" d="M70.5644 95.0249C73.8364 101.609 71.2204 113.613 70.0644 118.077C69.4724 111.369 68.4644 103.173 67.6924 97.1489C68.1884 93.7409 69.0564 92.0009 70.5644 95.0249Z" fill="black"/>
<path d="M69.8397 57.7601C69.8877 58.0201 70.0637 58.2081 70.2397 58.1601C70.4157 58.1121 70.5117 57.8921 70.4677 57.6321C70.4237 57.3721 70.2437 57.1841 70.0677 57.2321C69.8917 57.2801 69.7957 57.5001 69.8397 57.7601Z" fill="#FF7650"/>
<path d="M72.7884 57.2401C72.8324 57.5001 73.0084 57.6881 73.1884 57.6401C73.3684 57.5921 73.4604 57.3761 73.4164 57.1161C73.3724 56.8561 73.1924 56.6681 73.0164 56.6961C72.8404 56.7241 72.7404 56.9801 72.7884 57.2401Z" fill="#FF7650"/>
<path d="M72.9404 56.7411L73.5324 56.4531C73.5324 56.4531 73.3004 56.9971 72.9404 56.7411Z" fill="#FF7650"/>
<path d="M72.1006 57.8242C72.4376 58.3781 72.8495 58.8829 73.3246 59.3242C73.2079 59.4424 73.0671 59.534 72.9118 59.5927C72.7564 59.6514 72.5902 59.6758 72.4246 59.6642L72.1006 57.8242Z" fill="#DE5753"/>
<path d="M71.2363 60.8886C70.6705 60.8982 70.1234 60.6857 69.7123 60.2966C69.6977 60.2817 69.6895 60.2616 69.6895 60.2406C69.6895 60.2197 69.6977 60.1996 69.7123 60.1846C69.7194 60.1775 69.7278 60.1718 69.7371 60.168C69.7463 60.1641 69.7563 60.1621 69.7663 60.1621C69.7764 60.1621 69.7863 60.1641 69.7956 60.168C69.8048 60.1718 69.8133 60.1775 69.8203 60.1846C70.0636 60.4071 70.3559 60.569 70.6736 60.6573C70.9912 60.7456 71.3251 60.7577 71.6483 60.6926C71.6684 60.6902 71.6886 60.6955 71.7049 60.7074C71.7212 60.7192 71.7324 60.7368 71.7363 60.7566C71.7398 60.7773 71.7351 60.7985 71.7231 60.8157C71.7112 60.8329 71.6929 60.8447 71.6723 60.8486C71.5282 60.8729 71.3825 60.8862 71.2363 60.8886Z" fill="#FF7650"/>
<path d="M70.9921 52.6076C70.9001 53.7196 67.9041 54.6076 67.4681 57.3316C67.2361 58.7876 66.1561 59.8396 65.3801 59.9436C64.3132 59.9241 63.2896 59.5175 62.5001 58.7996C62.417 58.7069 62.3548 58.5976 62.3174 58.4788C62.2801 58.3601 62.2687 58.2348 62.2838 58.1112C62.299 57.9877 62.3404 57.8688 62.4053 57.7627C62.4702 57.6565 62.5571 57.5654 62.6601 57.4956C63.7561 56.7276 64.9161 55.7916 65.1321 54.3436C65.3961 52.6436 71.2481 49.5236 70.9921 52.6076Z" fill="#252929"/>
<path d="M64.6964 60.4524C64.9415 61.0313 65.404 61.4909 65.9844 61.7324C66.7604 62.0444 67.2364 61.3764 67.1004 60.5964C66.9724 59.8964 66.4204 58.8924 65.6084 58.9124C65.4308 58.92 65.2579 58.9718 65.1054 59.0631C64.9529 59.1544 64.8256 59.2823 64.735 59.4352C64.6444 59.5882 64.5934 59.7613 64.5867 59.9389C64.58 60.1165 64.6177 60.293 64.6964 60.4524Z" fill="#E4897B"/>
<path d="M68.7598 56.973C68.736 56.9768 68.7117 56.9768 68.6878 56.973C68.6519 56.9527 68.6249 56.9196 68.6123 56.8803C68.5997 56.841 68.6024 56.7984 68.6198 56.761C68.7274 56.5387 68.8867 56.3453 69.0844 56.1971C69.282 56.0489 69.5122 55.9501 69.7558 55.909C69.7972 55.9048 69.8386 55.9171 69.8708 55.9434C69.9031 55.9697 69.9236 56.0076 69.9278 56.049C69.9321 56.0904 69.9197 56.1318 69.8934 56.164C69.8672 56.1963 69.8292 56.2168 69.7878 56.221C69.5953 56.2555 69.4138 56.3356 69.2587 56.4546C69.1035 56.5736 68.979 56.728 68.8958 56.905C68.8811 56.9273 68.8608 56.9453 68.8369 56.9572C68.8131 56.9692 68.7865 56.9746 68.7598 56.973Z" fill="#FF7650"/>
<path d="M73.8565 55.6476C73.8355 55.6477 73.8147 55.6436 73.7955 55.6353C73.7762 55.627 73.7588 55.6149 73.7445 55.5996C73.6133 55.4544 73.4495 55.3424 73.2667 55.2729C73.0838 55.2034 72.887 55.1782 72.6925 55.1996C72.6548 55.2013 72.6178 55.1894 72.5883 55.1659C72.5587 55.1424 72.5387 55.1091 72.5319 55.072C72.525 55.0349 72.5319 54.9966 72.5511 54.9642C72.5703 54.9318 72.6007 54.9074 72.6365 54.8956C72.8817 54.8637 73.1311 54.8918 73.3631 54.9775C73.5951 55.0632 73.8029 55.2039 73.9685 55.3876C73.9975 55.4168 74.0139 55.4564 74.0139 55.4976C74.0139 55.5388 73.9975 55.5784 73.9685 55.6076C73.9375 55.6345 73.8975 55.6487 73.8565 55.6476Z" fill="#FF7650"/>
<path d="M64.8998 81.7115C63.2998 82.5115 61.6518 83.3755 60.0478 84.0275C59.7438 84.1555 59.4398 84.2635 59.1478 84.3595C59.1798 84.1715 59.2078 83.9835 59.2398 83.7955C59.3918 82.9475 59.5758 82.0955 59.8078 81.2435C60.0398 80.3915 60.2758 79.5315 60.5398 78.6795C61.0838 76.9875 61.6838 75.2595 62.3118 73.6235L59.2078 72.3555C58.4904 74.1082 57.8695 75.8989 57.3478 77.7195C56.8025 79.552 56.4013 81.4244 56.1478 83.3195C56.0998 83.8115 56.0398 84.2995 56.0278 84.8115L56.0078 85.1875C55.9946 85.441 56.0148 85.6952 56.0678 85.9435C56.12 86.1535 56.2036 86.3544 56.3158 86.5395C56.4467 86.7507 56.6164 86.9353 56.8158 87.0835C57.1198 87.3086 57.4793 87.4468 57.8558 87.4835C58.0803 87.5108 58.3073 87.5108 58.5318 87.4835C58.703 87.4569 58.8726 87.4209 59.0398 87.3755C59.3126 87.299 59.5799 87.2041 59.8398 87.0915C60.3097 86.8938 60.7666 86.6667 61.2078 86.4115C62.8482 85.4477 64.3972 84.3365 65.8358 83.0915L64.8998 81.7115Z" fill="#E4897B"/>
<path d="M45.7003 150.801H45.6523C45.2523 150.757 44.8523 150.101 44.6323 149.717C44.6237 149.704 44.6191 149.688 44.6191 149.673C44.6191 149.657 44.6237 149.642 44.6323 149.629C44.6419 149.617 44.6545 149.609 44.6687 149.605C44.683 149.601 44.6981 149.6 44.7123 149.605C44.8443 149.641 45.9803 149.969 46.1043 150.369C46.1174 150.414 46.1184 150.462 46.1071 150.507C46.0959 150.553 46.0729 150.595 46.0403 150.629C45.9991 150.68 45.9474 150.722 45.8888 150.751C45.8302 150.781 45.7659 150.798 45.7003 150.801ZM44.8603 149.805C45.1483 150.309 45.4483 150.605 45.6603 150.645C45.7112 150.648 45.762 150.638 45.8082 150.616C45.8543 150.595 45.8942 150.562 45.9243 150.521C45.9387 150.506 45.9489 150.488 45.9539 150.469C45.9588 150.449 45.9583 150.428 45.9523 150.409C45.9003 150.181 45.3003 149.933 44.8643 149.789L44.8603 149.805Z" fill="#FCB90E"/>
<path d="M45.2245 149.799C45.0394 149.804 44.8547 149.782 44.6765 149.731C44.6641 149.726 44.6532 149.718 44.6448 149.707C44.6364 149.697 44.6308 149.685 44.6285 149.671C44.6258 149.658 44.6266 149.645 44.6309 149.632C44.6351 149.619 44.6425 149.608 44.6525 149.599C44.6845 149.571 45.4045 148.959 45.8525 149.015C45.9122 149.021 45.9697 149.04 46.021 149.072C46.0722 149.103 46.1158 149.145 46.1485 149.195C46.1864 149.244 46.2071 149.304 46.2071 149.365C46.2071 149.427 46.1864 149.487 46.1485 149.535C45.8832 149.734 45.5544 149.827 45.2245 149.799ZM44.8725 149.619C45.2725 149.691 45.9085 149.619 46.0485 149.439C46.0725 149.411 46.0925 149.363 46.0485 149.283C46.0278 149.251 46.0002 149.224 45.9676 149.204C45.9351 149.184 45.8985 149.171 45.8605 149.167C45.4927 149.214 45.148 149.371 44.8725 149.619Z" fill="#FCB90E"/>
<path d="M69.9961 57.2647L70.5881 56.9727C70.5881 56.9727 70.3521 57.5167 69.9961 57.2647Z" fill="#FF7650"/>
<path d="M72.7921 88.7402C72.7921 88.7402 69.7761 115.004 67.4961 123.436C64.7921 133.436 47.9881 146.916 47.9881 146.916L44.5801 144.024C44.5801 144.024 56.7601 129.388 58.8281 124.116C63.2281 112.86 59.4641 96.0842 62.9881 88.7402H72.7921Z" fill="#FCB90E"/>
<path opacity="0.5" d="M72.7921 88.7402C72.7921 88.7402 69.7761 115.004 67.4961 123.436C64.7921 133.436 47.9881 146.916 47.9881 146.916L44.5801 144.024C44.5801 144.024 56.7601 129.388 58.8281 124.116C63.2281 112.86 59.4641 96.0842 62.9881 88.7402H72.7921Z" fill="black"/>
<path d="M44.0361 143.868L48.2641 147.46L49.8441 146.512L45.0601 142.064L44.0361 143.868Z" fill="#FCB90E"/>
<path d="M62.7924 87.9604L62.4484 89.1604C62.4044 89.2524 62.5124 89.3444 62.6684 89.3444H76.3764C76.4964 89.3444 76.5964 89.2884 76.6044 89.2124L76.7244 88.0124C76.7244 87.9284 76.6284 87.8604 76.4964 87.8604H63.0084C62.9667 87.8565 62.9248 87.8636 62.8868 87.8812C62.8489 87.8988 62.8163 87.9261 62.7924 87.9604Z" fill="#FCB90E"/>
<path opacity="0.2" d="M62.7924 87.9604L62.4484 89.1604C62.4044 89.2524 62.5124 89.3444 62.6684 89.3444H76.3764C76.4964 89.3444 76.5964 89.2884 76.6044 89.2124L76.7244 88.0124C76.7244 87.9284 76.6284 87.8604 76.4964 87.8604H63.0084C62.9667 87.8565 62.9248 87.8636 62.8868 87.8812C62.8489 87.8988 62.8163 87.9261 62.7924 87.9604Z" fill="white"/>
<path d="M64.5999 89.468H64.2399C64.1679 89.468 64.1119 89.428 64.1199 89.384L64.2879 87.8359C64.2879 87.7879 64.3559 87.752 64.4279 87.752H64.7879C64.8599 87.752 64.9159 87.7879 64.9119 87.8359L64.7399 89.384C64.7359 89.428 64.6719 89.468 64.5999 89.468Z" fill="#FCB90E"/>
<path d="M75.3602 89.468H75.0002C74.9282 89.468 74.8722 89.428 74.8762 89.384L75.0482 87.8359C75.0482 87.7879 75.1162 87.752 75.1882 87.752H75.5482C75.6202 87.752 75.6722 87.7879 75.6682 87.8359L75.5002 89.384C75.4962 89.428 75.4322 89.468 75.3602 89.468Z" fill="#FCB90E"/>
<path d="M69.9803 89.468H69.6203C69.5483 89.468 69.4923 89.428 69.4963 89.384L69.6683 87.8359C69.6683 87.7879 69.7363 87.752 69.8083 87.752H70.1683C70.2403 87.752 70.2963 87.7879 70.2923 87.8359L70.1203 89.384C70.1003 89.428 70.0523 89.468 69.9803 89.468Z" fill="#FCB90E"/>
<path opacity="0.5" d="M64.5999 89.468H64.2399C64.1679 89.468 64.1119 89.428 64.1199 89.384L64.2879 87.8359C64.2879 87.7879 64.3559 87.752 64.4279 87.752H64.7879C64.8599 87.752 64.9159 87.7879 64.9119 87.8359L64.7399 89.384C64.7359 89.428 64.6719 89.468 64.5999 89.468Z" fill="black"/>
<path opacity="0.5" d="M75.3602 89.468H75.0002C74.9282 89.468 74.8722 89.428 74.8762 89.384L75.0482 87.8359C75.0482 87.7879 75.1162 87.752 75.1882 87.752H75.5482C75.6202 87.752 75.6722 87.7879 75.6682 87.8359L75.5002 89.384C75.4962 89.428 75.4322 89.468 75.3602 89.468Z" fill="black"/>
<path opacity="0.5" d="M69.9803 89.468H69.6203C69.5483 89.468 69.4923 89.428 69.4963 89.384L69.6683 87.8359C69.6683 87.7879 69.7363 87.752 69.8083 87.752H70.1683C70.2403 87.752 70.2963 87.7879 70.2923 87.8359L70.1203 89.384C70.1003 89.428 70.0523 89.468 69.9803 89.468Z" fill="black"/>
<path d="M88.8397 71.2004C87.4115 70.1285 85.6734 69.5501 83.8877 69.5524V69.1524C85.7632 69.1451 87.5896 69.752 89.0877 70.8804L88.8397 71.2004Z" fill="#FCB90E"/>
<path d="M90.8718 73.3929C90.5094 72.8234 90.0796 72.2996 89.5918 71.8329L89.8678 71.5449C90.38 72.0327 90.8313 72.5807 91.2118 73.1769L90.8718 73.3929Z" fill="#FCB90E"/>
<path opacity="0.2" d="M88.8397 71.2004C87.4115 70.1285 85.6734 69.5501 83.8877 69.5524V69.1524C85.7632 69.1451 87.5896 69.752 89.0877 70.8804L88.8397 71.2004Z" fill="black"/>
<path opacity="0.2" d="M90.8718 73.3929C90.5094 72.8234 90.0796 72.2996 89.5918 71.8329L89.8678 71.5449C90.38 72.0327 90.8313 72.5807 91.2118 73.1769L90.8718 73.3929Z" fill="black"/>
<path d="M67.8836 74.9247C69.0393 73.3817 70.7604 72.3607 72.6686 72.0862C74.5768 71.8117 76.5159 72.3061 78.0596 73.4607C79.2294 71.9562 80.9431 70.971 82.8319 70.7172C84.7208 70.4633 86.6337 70.9611 88.1593 72.1034C89.6848 73.2457 90.7009 74.9412 90.989 76.8251C91.2771 78.709 90.8141 80.6307 89.6996 82.1767L80.9836 93.8167L69.3436 85.1047C68.5793 84.5322 67.9353 83.8147 67.4483 82.9932C66.9613 82.1717 66.6409 81.2624 66.5053 80.3171C66.3697 79.3718 66.4217 78.4091 66.6582 77.4838C66.8947 76.5586 67.3111 75.689 67.8836 74.9247Z" fill="#5DB379"/>
<path opacity="0.2" d="M67.8836 74.9247C69.0393 73.3817 70.7604 72.3607 72.6686 72.0862C74.5768 71.8117 76.5159 72.3061 78.0596 73.4607C79.2294 71.9562 80.9431 70.971 82.8319 70.7172C84.7208 70.4633 86.6337 70.9611 88.1593 72.1034C89.6848 73.2457 90.7009 74.9412 90.989 76.8251C91.2771 78.709 90.8141 80.6307 89.6996 82.1767L80.9836 93.8167L69.3436 85.1047C68.5793 84.5322 67.9353 83.8147 67.4483 82.9932C66.9613 82.1717 66.6409 81.2624 66.5053 80.3171C66.3697 79.3718 66.4217 78.4091 66.6582 77.4838C66.8947 76.5586 67.3111 75.689 67.8836 74.9247Z" fill="black"/>
<path d="M67.8319 77.1602L69.1759 79.6122L67.2999 81.5282L65.5439 78.6962L67.8319 77.1602Z" fill="#E4897B"/>
<path d="M64.4443 82.0633L65.5443 78.6953L67.3003 81.5273C67.3003 81.5273 66.2683 83.3633 64.9003 83.3353L64.4443 82.0633Z" fill="#E4897B"/>
<path d="M60.6284 68.8519C59.2964 69.2519 57.6924 73.8519 57.6924 73.8519L62.8684 77.5519C62.8684 77.5519 64.7564 73.7159 64.1964 71.9919C63.6124 70.1959 62.1524 68.3999 60.6284 68.8519Z" fill="#FCB90E"/>
<path opacity="0.6" d="M60.6284 68.8519C59.2964 69.2519 57.6924 73.8519 57.6924 73.8519L62.8684 77.5519C62.8684 77.5519 64.7564 73.7159 64.1964 71.9919C63.6124 70.1959 62.1524 68.3999 60.6284 68.8519Z" fill="white"/>
<path d="M92.3245 75.9805L93.0245 78.6885L90.7325 80.0885L89.7285 76.9085L92.3245 75.9805Z" fill="#E4897B"/>
</svg>
