<svg width="22" height="22" viewBox="0 0 22 22" fill="none" xmlns="http://www.w3.org/2000/svg">
<path d="M10.3544 14.7102L10.3563 15.4602L10.3544 14.7102ZM14.2189 13.9284L14.7492 14.4587L14.2189 13.9284ZM14.9998 9.15066L14.2498 9.14745V9.15066H14.9998ZM14.3335 8.87328L14.8637 9.40373L14.3335 8.87328ZM12.4767 10.7292L11.9465 10.1988L12.4767 10.7292ZM10.7703 10.7291L10.24 11.2595L10.7703 10.7291ZM6.78983 11.1448L7.53983 11.1467L6.78983 11.1448ZM7.57184 7.28101L8.10213 7.81139L7.57184 7.28101ZM12.3503 6.50025V7.25026L12.3535 7.25024L12.3503 6.50025ZM12.6277 7.16645L13.1581 7.69676L13.1581 7.69675L12.6277 7.16645ZM10.7715 9.02284L10.2411 8.49253L10.2411 8.49254L10.7715 9.02284ZM1.56682 19.9332L1.03649 20.4636H1.03649L1.56682 19.9332ZM1.56682 17.1964L2.09715 17.7267L2.09716 17.7267L1.56682 17.1964ZM4.30366 19.9332L4.83399 20.4636L4.83403 20.4635L4.30366 19.9332ZM8.93994 15.2963L9.4703 15.8266L9.47031 15.8266L8.93994 15.2963ZM6.20389 12.5591L5.67355 12.0288L6.20389 12.5591ZM6.71217 11.9438L7.40471 12.2317L7.40472 12.2317L6.71217 11.9438ZM6.87495 1.9868L6.50465 1.33459L6.50465 1.33459L6.87495 1.9868ZM5.15026 2.96603L5.52056 3.61823L5.52056 3.61823L5.15026 2.96603ZM15.125 20.0134L14.7547 19.3612L14.7547 19.3612L15.125 20.0134ZM16.8497 19.0342L17.2201 19.6864V19.6864L16.8497 19.0342ZM16.8482 2.96593L17.2185 2.31372V2.31372L16.8482 2.96593ZM15.1235 1.9867L15.4938 1.33449L15.1235 1.9867ZM17.3418 4.40086L16.6158 4.21237L17.3418 4.40086ZM20.011 8.90366L19.8157 9.6278L20.011 8.90366ZM20.011 13.0966L19.8157 12.3725L20.011 13.0966ZM17.3433 17.5993L16.6174 17.7879V17.7879L17.3433 17.5993ZM13.6673 19.7214L13.1375 20.2523V20.2523L13.6673 19.7214ZM7.0837 20.1203C6.87398 20.4775 6.99355 20.937 7.35075 21.1467C7.70796 21.3565 8.16753 21.2369 8.37724 20.8797L7.0837 20.1203ZM13.6657 2.27871L14.1954 2.80967V2.80967L13.6657 2.27871ZM8.33276 2.2788L7.80307 2.80976V2.80976L8.33276 2.2788ZM4.65672 4.40094L3.93082 4.58951L4.65672 4.40094ZM1.98902 8.90364L1.79373 8.17951H1.79373L1.98902 8.90364ZM1.80989 13.8251C2.20955 13.934 2.62178 13.6983 2.73064 13.2986C2.83949 12.899 2.60376 12.4867 2.20411 12.3779L1.80989 13.8251ZM1.98866 13.0965L2.18576 12.3729L2.18391 12.3724L1.98866 13.0965ZM14.3981 1.69219L14.2979 0.948903L14.3981 1.69219ZM17.4848 18.5549L18.1756 18.847L18.1756 18.847L17.4848 18.5549ZM14.3996 20.3079L14.2994 21.0512L14.2994 21.0512L14.3996 20.3079ZM7.60035 1.69228L7.50022 2.43557H7.50022L7.60035 1.69228ZM20.8969 9.2493L21.4923 8.7932V8.7932L20.8969 9.2493ZM20.8969 12.7509L21.4923 13.207L21.4923 13.207L20.8969 12.7509ZM1.10308 12.751L1.69846 12.2949L1.69846 12.2949L1.10308 12.751ZM10.3563 15.4602C11.2919 15.4578 12.138 15.4421 12.8477 15.3252C13.5635 15.2072 14.2352 14.9726 14.7492 14.4587L13.6886 13.398C13.4888 13.5978 13.1706 13.7517 12.6038 13.8451C12.0309 13.9395 11.3017 13.9578 10.3525 13.9602L10.3563 15.4602ZM14.7492 14.4587C14.9707 14.2373 15.1805 14.0024 15.3429 13.7042C15.5085 13.4002 15.6013 13.075 15.6567 12.6942C15.7604 11.9824 15.7498 10.9133 15.7498 9.15066H14.2498C14.2498 10.9927 14.2557 11.9055 14.1724 12.478C14.1343 12.7393 14.0828 12.8818 14.0256 12.9867C13.9654 13.0974 13.8741 13.2126 13.6886 13.398L14.7492 14.4587ZM15.7498 9.15387C15.7542 8.13439 14.5222 7.6242 13.8033 8.34284L14.8637 9.40373C14.6375 9.6298 14.2484 9.47024 14.2498 9.14745L15.7498 9.15387ZM13.8033 8.34284L11.9465 10.1988L13.007 11.2597L14.8637 9.40373L13.8033 8.34284ZM11.9465 10.1988C11.7681 10.3771 11.4789 10.3771 11.3005 10.1987L10.24 11.2595C11.004 12.0234 12.2428 12.0235 13.007 11.2597L11.9465 10.1988ZM7.53983 11.1467C7.54225 10.198 7.56057 9.46897 7.65498 8.89609C7.74838 8.3293 7.90234 8.01114 8.10213 7.81139L7.04155 6.75064C6.52753 7.26457 6.29289 7.93645 6.17494 8.65219C6.058 9.36185 6.04222 10.2078 6.03984 11.1428L7.53983 11.1467ZM8.10213 7.81139C8.28757 7.62597 8.4028 7.53469 8.5135 7.47442C8.61847 7.41726 8.76095 7.36572 9.02234 7.32767C9.59502 7.24432 10.508 7.25025 12.3503 7.25025V5.75025C10.5874 5.75025 9.5181 5.73971 8.8063 5.84331C8.42545 5.89874 8.10015 5.99153 7.79618 6.15705C7.49792 6.31945 7.26303 6.5292 7.04155 6.75064L8.10213 7.81139ZM12.3535 7.25024C12.0313 7.25162 11.8708 6.8627 12.0974 6.63614L13.1581 7.69675C13.8773 6.97749 13.3662 5.74589 12.3471 5.75026L12.3535 7.25024ZM12.0974 6.63614L10.2411 8.49253L11.3018 9.55315L13.1581 7.69676L12.0974 6.63614ZM10.2411 8.49254C9.47818 9.25557 9.47473 10.4944 10.24 11.2595L11.3005 10.1987C11.1233 10.0216 11.1225 9.73253 11.3018 9.55315L10.2411 8.49254ZM2.09715 19.4029C1.63428 18.9401 1.63428 18.1896 2.09715 17.7267L1.03649 16.6661C-0.0121626 17.7147 -0.012163 19.4149 1.03649 20.4636L2.09715 19.4029ZM3.77333 19.4029C3.31046 19.8658 2.56001 19.8658 2.09715 19.4029L1.03649 20.4636C2.08514 21.5122 3.78534 21.5122 4.83399 20.4636L3.77333 19.4029ZM8.40957 14.766L3.77329 19.403L4.83403 20.4635L9.4703 15.8266L8.40957 14.766ZM2.09716 17.7267L6.73424 13.0894L5.67355 12.0288L1.03647 16.6661L2.09716 17.7267ZM6.03984 11.1428C6.03928 11.3591 6.03849 11.4804 6.03141 11.5714C6.02824 11.6121 6.02458 11.6343 6.02218 11.6457C6.02105 11.6512 6.02022 11.654 6.01992 11.655C6.01976 11.6555 6.01966 11.6558 6.01964 11.6559C6.01963 11.6559 6.01962 11.6559 6.01962 11.6559L7.40472 12.2317C7.55123 11.8792 7.53894 11.4955 7.53983 11.1467L6.03984 11.1428ZM6.73424 13.0894C6.97923 12.8444 7.25828 12.584 7.40471 12.2317L6.01962 11.6559C6.0196 11.656 6.0195 11.6562 6.01903 11.6571C6.01852 11.6581 6.01709 11.6606 6.01411 11.6652C6.00782 11.6748 5.99485 11.6928 5.96865 11.7233C5.90984 11.7918 5.82535 11.8769 5.67355 12.0288L6.73424 13.0894ZM10.3525 13.9602C10.0036 13.9611 9.61982 13.9488 9.26732 14.0954L9.84316 15.4804C9.84317 15.4804 9.84317 15.4804 9.84322 15.4804C9.84327 15.4804 9.84354 15.4803 9.84408 15.4801C9.84507 15.4798 9.84792 15.479 9.85334 15.4779C9.86477 15.4755 9.88703 15.4718 9.92767 15.4687C10.0187 15.4616 10.14 15.4608 10.3563 15.4602L10.3525 13.9602ZM9.47031 15.8266C9.62212 15.6748 9.70732 15.5903 9.77577 15.5314C9.80628 15.5052 9.82431 15.4923 9.83389 15.486C9.83843 15.483 9.84101 15.4815 9.84197 15.481C9.84285 15.4806 9.84312 15.4805 9.84316 15.4804L9.26732 14.0954C8.915 14.2419 8.65458 14.521 8.40957 14.766L9.47031 15.8266ZM0.25 10.0333L0.25 11.9669H1.75L1.75 10.0333H0.25ZM21.75 11.9669V10.0333H20.25V11.9669H21.75ZM6.50465 1.33459L4.77995 2.31382L5.52056 3.61823L7.24526 2.639L6.50465 1.33459ZM15.4954 20.6656L17.2201 19.6864L16.4794 18.382L14.7547 19.3612L15.4954 20.6656ZM17.2185 2.31372L15.4938 1.33449L14.7532 2.63891L16.4779 3.61814L17.2185 2.31372ZM16.6158 4.21237C16.0058 6.56172 17.4812 8.99834 19.8157 9.6278L20.2062 8.17952C18.6394 7.75704 17.6714 6.1154 18.0677 4.58935L16.6158 4.21237ZM19.8157 12.3725C17.4812 13.002 16.0071 15.4388 16.6174 17.7879L18.0692 17.4107C17.6727 15.8845 18.64 14.2431 20.2063 13.8207L19.8157 12.3725ZM14.1971 19.1905C12.178 17.1757 8.63376 17.48 7.0837 20.1203L8.37724 20.8797C9.41143 19.1181 11.7859 18.9035 13.1375 20.2523L14.1971 19.1905ZM13.136 1.74775C11.9694 2.91149 10.0289 2.91152 8.86245 1.74783L7.80307 2.80976C9.55508 4.55757 12.4434 4.55749 14.1954 2.80967L13.136 1.74775ZM3.93082 4.58951C4.3273 6.11575 3.36002 7.7571 1.79373 8.17951L2.18431 9.62777C4.51877 8.99819 5.99287 6.56141 5.38263 4.21236L3.93082 4.58951ZM2.20411 12.3779L2.18576 12.3729L1.79155 13.8201L1.80989 13.8251L2.20411 12.3779ZM15.4938 1.33449C15.3218 1.23687 15.143 1.13423 14.9853 1.06502C14.8221 0.993358 14.5823 0.910589 14.2979 0.948903L14.4982 2.43547C14.3809 2.45128 14.3177 2.4101 14.3823 2.43848C14.4115 2.45129 14.454 2.47235 14.519 2.50761C14.5837 2.54271 14.6582 2.58502 14.7532 2.63891L15.4938 1.33449ZM14.1954 2.80967C14.3938 2.61172 14.5085 2.49818 14.5933 2.42685C14.6326 2.39378 14.6444 2.38816 14.636 2.39294C14.6253 2.39897 14.5766 2.42491 14.4982 2.43547L14.2979 0.948903C13.9888 0.990553 13.7596 1.16807 13.6278 1.27891C13.4824 1.40121 13.3145 1.56968 13.136 1.74775L14.1954 2.80967ZM16.4779 3.61814C16.5745 3.67303 16.6507 3.71629 16.7153 3.75467C16.7803 3.79323 16.8214 3.81963 16.8483 3.83878C16.9086 3.88175 16.8395 3.8485 16.7925 3.73741L18.174 3.15303C18.0609 2.88569 17.8639 2.72048 17.718 2.6167C17.5763 2.51579 17.394 2.41336 17.2185 2.31372L16.4779 3.61814ZM18.0677 4.58935C18.1334 4.33632 18.1953 4.10026 18.2283 3.90918C18.2576 3.73904 18.2974 3.44488 18.174 3.15303L16.7925 3.73741C16.7604 3.66155 16.7586 3.60473 16.7585 3.59428C16.7584 3.58597 16.7593 3.60089 16.7501 3.65439C16.7303 3.76883 16.6885 3.93247 16.6158 4.21237L18.0677 4.58935ZM17.2201 19.6864C17.3956 19.5868 17.5779 19.4843 17.7197 19.3834C17.8655 19.2796 18.0625 19.1144 18.1756 18.847L16.7941 18.2627C16.8411 18.1516 16.9102 18.1184 16.8499 18.1613C16.823 18.1805 16.7819 18.2069 16.7169 18.2455C16.6523 18.2838 16.5761 18.3271 16.4794 18.382L17.2201 19.6864ZM16.6174 17.7879C16.6901 18.0677 16.7319 18.2314 16.7517 18.3458C16.7609 18.3993 16.76 18.4142 16.7601 18.4059C16.7602 18.3954 16.762 18.3386 16.7941 18.2627L18.1756 18.847C18.299 18.5551 18.2592 18.261 18.2298 18.0908C18.1969 17.8998 18.1349 17.6637 18.0692 17.4107L16.6174 17.7879ZM14.7547 19.3612C14.6598 19.4151 14.5852 19.4574 14.5205 19.4925C14.4555 19.5278 14.4131 19.5488 14.3839 19.5617C14.3192 19.59 14.3824 19.5489 14.4998 19.5647L14.2994 21.0512C14.5838 21.0896 14.8236 21.0068 14.9869 20.9351C15.1445 20.8659 15.3234 20.7633 15.4954 20.6656L14.7547 19.3612ZM13.1375 20.2523C13.316 20.4303 13.4839 20.5988 13.6293 20.7212C13.7611 20.832 13.9902 21.0096 14.2994 21.0512L14.4998 19.5647C14.5782 19.5752 14.6269 19.6012 14.6375 19.6072C14.646 19.612 14.6342 19.6064 14.5949 19.5733C14.5101 19.502 14.3954 19.3884 14.1971 19.1905L13.1375 20.2523ZM4.77995 2.31382C4.60444 2.41347 4.42215 2.51589 4.28034 2.61682C4.13452 2.72061 3.93749 2.88584 3.82441 3.1532L5.20592 3.7375C5.15894 3.8486 5.08978 3.88185 5.15014 3.83889C5.17705 3.81974 5.21808 3.79334 5.28306 3.75477C5.34774 3.71639 5.42388 3.67313 5.52056 3.61823L4.77995 2.31382ZM5.38263 4.21236C5.30992 3.93248 5.26807 3.76887 5.24833 3.65444C5.23911 3.60095 5.23998 3.58604 5.23988 3.59436C5.23976 3.60483 5.23801 3.66165 5.20592 3.7375L3.82441 3.1532C3.70096 3.44508 3.74081 3.73923 3.77016 3.90939C3.80312 4.10047 3.86509 4.33651 3.93082 4.58951L5.38263 4.21236ZM7.24525 2.639C7.34017 2.58511 7.41474 2.54281 7.47945 2.50771C7.54445 2.47245 7.58692 2.45138 7.61609 2.43858C7.68075 2.41019 7.61756 2.45138 7.50022 2.43557L7.70048 0.948998C7.41609 0.910687 7.17632 0.993456 7.0131 1.06512C6.85545 1.13433 6.67658 1.23697 6.50465 1.33459L7.24525 2.639ZM8.86245 1.74783C8.68396 1.56977 8.51602 1.4013 8.37061 1.279C8.23883 1.16817 8.00964 0.990647 7.70048 0.948998L7.50022 2.43557C7.42178 2.425 7.3731 2.39907 7.36245 2.39303C7.35402 2.38826 7.36577 2.39388 7.4051 2.42695C7.48991 2.49828 7.60465 2.61182 7.80307 2.80976L8.86245 1.74783ZM21.75 10.0333C21.75 9.83316 21.7509 9.62508 21.7332 9.45253C21.7148 9.27444 21.6682 9.02281 21.4923 8.7932L20.3015 9.70541C20.2287 9.61036 20.2336 9.53425 20.2411 9.60627C20.2444 9.63859 20.2471 9.68669 20.2485 9.76157C20.25 9.83611 20.25 9.92292 20.25 10.0333H21.75ZM19.8157 9.6278C20.0902 9.70182 20.249 9.7453 20.3553 9.78384C20.4047 9.80177 20.4161 9.80944 20.4081 9.80475C20.398 9.79882 20.3505 9.76931 20.3015 9.70541L21.4923 8.7932C21.3009 8.54335 21.0293 8.43269 20.8667 8.37374C20.6863 8.30829 20.4536 8.24622 20.2062 8.17952L19.8157 9.6278ZM20.25 11.9669C20.25 12.0773 20.25 12.1641 20.2485 12.2386C20.2471 12.3135 20.2444 12.3616 20.2411 12.3939C20.2336 12.466 20.2287 12.3899 20.3015 12.2948L21.4923 13.207C21.6682 12.9774 21.7148 12.7258 21.7332 12.5477C21.7509 12.3751 21.75 12.1671 21.75 11.9669H20.25ZM20.2063 13.8207C20.4537 13.754 20.6863 13.6919 20.8668 13.6265C21.0293 13.5675 21.3009 13.4568 21.4923 13.207L20.3015 12.2948C20.3505 12.2309 20.398 12.2014 20.4081 12.1955C20.4161 12.1908 20.4047 12.1984 20.3552 12.2164C20.249 12.2549 20.0902 12.2984 19.8157 12.3725L20.2063 13.8207ZM0.25 11.9669C0.25 12.1671 0.249057 12.3752 0.266835 12.5477C0.285184 12.7258 0.331808 12.9774 0.507712 13.2071L1.69846 12.2949C1.77128 12.3899 1.76636 12.466 1.75894 12.394C1.75561 12.3617 1.75292 12.3136 1.75147 12.2387C1.75003 12.1641 1.75 12.0773 1.75 11.9669H0.25ZM2.18391 12.3724C1.90951 12.2984 1.75087 12.2549 1.64467 12.2164C1.59528 12.1985 1.58393 12.1908 1.59193 12.1955C1.60205 12.2015 1.64954 12.231 1.69846 12.2949L0.507708 13.2071C0.699078 13.4569 0.970607 13.5675 1.13314 13.6265C1.31354 13.6919 1.54614 13.754 1.7934 13.8206L2.18391 12.3724ZM1.75 10.0333C1.75 9.92293 1.75003 9.83612 1.75147 9.76158C1.75292 9.6867 1.75561 9.6386 1.75894 9.60629C1.76636 9.53426 1.77127 9.61037 1.69846 9.70542L0.507693 8.79324C0.331805 9.02285 0.285183 9.27447 0.266834 9.45255C0.249057 9.62509 0.25 9.83317 0.25 10.0333H1.75ZM1.79373 8.17951C1.54633 8.24623 1.31366 8.30831 1.13321 8.37377C0.9707 8.43272 0.699085 8.54339 0.507693 8.79324L1.69846 9.70542C1.64951 9.76932 1.60199 9.79883 1.59191 9.80476C1.58394 9.80946 1.59532 9.80178 1.64476 9.78385C1.75103 9.74529 1.90979 9.7018 2.18431 9.62777L1.79373 8.17951Z" fill="#8F9695"/>
</svg>
