<svg width="22" height="22" viewBox="0 0 22 22" fill="none" xmlns="http://www.w3.org/2000/svg">
<path d="M1 5C1 3.11438 1 2.17157 1.58579 1.58579C2.17157 1 3.11438 1 5 1C6.88562 1 7.82843 1 8.41421 1.58579C9 2.17157 9 3.11438 9 5V7C9 8.88562 9 9.82843 8.41421 10.4142C7.82843 11 6.88562 11 5 11C3.11438 11 2.17157 11 1.58579 10.4142C1 9.82843 1 8.88562 1 7L1 5Z" stroke="#55A36E" stroke-width="1.5"/>
<path d="M1 18C1 17.0681 1 16.6022 1.15224 16.2346C1.35523 15.7446 1.74458 15.3552 2.23463 15.1522C2.60218 15 3.06812 15 4 15L6 15C6.93188 15 7.39782 15 7.76537 15.1522C8.25542 15.3552 8.64477 15.7446 8.84776 16.2346C9 16.6022 9 17.0681 9 18C9 18.9319 9 19.3978 8.84776 19.7654C8.64477 20.2554 8.25542 20.6448 7.76537 20.8478C7.39782 21 6.93188 21 6 21H4C3.06812 21 2.60218 21 2.23463 20.8478C1.74458 20.6448 1.35523 20.2554 1.15224 19.7654C1 19.3978 1 18.9319 1 18Z" stroke="#55A36E" stroke-width="1.5"/>
<path d="M13 15C13 13.1144 13 12.1716 13.5858 11.5858C14.1716 11 15.1144 11 17 11C18.8856 11 19.8284 11 20.4142 11.5858C21 12.1716 21 13.1144 21 15V17C21 18.8856 21 19.8284 20.4142 20.4142C19.8284 21 18.8856 21 17 21C15.1144 21 14.1716 21 13.5858 20.4142C13 19.8284 13 18.8856 13 17V15Z" stroke="#55A36E" stroke-width="1.5"/>
<path d="M13 4C13 3.06812 13 2.60218 13.1522 2.23463C13.3552 1.74458 13.7446 1.35523 14.2346 1.15224C14.6022 1 15.0681 1 16 1L18 1C18.9319 1 19.3978 1 19.7654 1.15224C20.2554 1.35523 20.6448 1.74458 20.8478 2.23463C21 2.60218 21 3.06812 21 4C21 4.93188 21 5.39782 20.8478 5.76537C20.6448 6.25542 20.2554 6.64477 19.7654 6.84776C19.3978 7 18.9319 7 18 7L16 7C15.0681 7 14.6022 7 14.2346 6.84776C13.7446 6.64477 13.3552 6.25542 13.1522 5.76537C13 5.39782 13 4.93188 13 4Z" stroke="#55A36E" stroke-width="1.5"/>
</svg>
