<svg width="20" height="19" viewBox="0 0 20 19" fill="none" xmlns="http://www.w3.org/2000/svg">
<path d="M2.72147 17.9283L2.74108 17.1786H2.74108L2.72147 17.9283ZM1.69706 16.7658L2.44479 16.824L1.69706 16.7658ZM3.99151 11.2477L3.44038 10.739L3.99151 11.2477ZM1.71956 16.477L0.971821 16.4187V16.4187L1.71956 16.477ZM8.95918 15.5892L8.43889 15.049L8.95918 15.5892ZM2.9548 17.9344L2.93519 18.6842H2.93519L2.9548 17.9344ZM18.0136 4.11138L18.6757 3.75912L18.0136 4.11138ZM16.7956 8.04145L16.2753 7.50127L16.7956 8.04145ZM17.9756 6.75286L17.324 6.3815L17.9756 6.75286ZM15.5756 1.62088L15.2116 2.2766L15.5756 1.62088ZM11.7284 2.86515L12.2795 3.37384L11.7284 2.86515ZM12.9898 1.65972L12.6065 1.0151V1.0151L12.9898 1.65972ZM11.364 2.43028C11.0711 2.13739 10.5962 2.13739 10.3033 2.43028C10.0104 2.72318 10.0104 3.19805 10.3033 3.49094L11.364 2.43028ZM16.1367 9.32428C16.4296 9.61717 16.9044 9.61717 17.1973 9.32428C17.4902 9.03138 17.4902 8.55651 17.1973 8.26362L16.1367 9.32428ZM11.667 17.2106C11.2528 17.2106 10.917 17.5464 10.917 17.9606C10.917 18.3748 11.2528 18.7106 11.667 18.7106V17.2106ZM18.3337 18.7106C18.7479 18.7106 19.0837 18.3748 19.0837 17.9606C19.0837 17.5464 18.7479 17.2106 18.3337 17.2106V18.7106ZM16.2753 7.50127L8.43889 15.049L9.47947 16.1294L17.3159 8.58164L16.2753 7.50127ZM4.54264 11.7564L12.2795 3.37384L11.1773 2.35647L3.44038 10.739L4.54264 11.7564ZM2.9744 17.1847L2.74108 17.1786L2.70187 18.6781L2.93519 18.6842L2.9744 17.1847ZM2.44479 16.824L2.46729 16.5352L0.971821 16.4187L0.949324 16.7075L2.44479 16.824ZM2.74108 17.1786C2.60767 17.1751 2.50416 17.1723 2.41572 17.1677C2.32683 17.1631 2.27271 17.1574 2.2386 17.1517C2.20497 17.1461 2.21236 17.1438 2.23928 17.1563C2.2727 17.1718 2.31394 17.1996 2.34936 17.2398L1.22394 18.2315C1.45921 18.4985 1.75514 18.5917 1.99177 18.6312C2.20513 18.6668 2.46307 18.6718 2.70187 18.6781L2.74108 17.1786ZM0.949324 16.7075C0.930265 16.9521 0.908513 17.2108 0.920577 17.4273C0.933759 17.6638 0.990902 17.967 1.22394 18.2315L2.34936 17.2398C2.43066 17.3321 2.42229 17.4162 2.41825 17.3438C2.41615 17.306 2.41638 17.2484 2.4212 17.1569C2.426 17.0658 2.43422 16.9597 2.44479 16.824L0.949324 16.7075ZM3.44038 10.739C2.46616 11.7945 1.85339 12.4443 1.49887 13.2603L2.87463 13.858C3.10466 13.3285 3.50021 12.8858 4.54264 11.7564L3.44038 10.739ZM2.46729 16.5352C2.58783 14.9881 2.64404 14.3887 2.87463 13.858L1.49887 13.2603C1.1449 14.075 1.0845 14.9724 0.971821 16.4187L2.46729 16.5352ZM8.43889 15.049C7.14598 16.2943 6.64199 16.7611 6.03418 16.9985L6.57991 18.3957C7.532 18.0238 8.27613 17.2884 9.47947 16.1294L8.43889 15.049ZM2.93519 18.6842C4.58818 18.7274 5.62615 18.7682 6.57991 18.3957L6.03418 16.9985C5.42804 17.2352 4.75114 17.2311 2.9744 17.1847L2.93519 18.6842ZM16.3352 3.31256C17.0124 4.00432 17.2327 4.24029 17.3515 4.46365L18.6757 3.75912C18.43 3.29714 18.0101 2.87924 17.4071 2.26326L16.3352 3.31256ZM17.3159 8.58164C17.9363 7.9841 18.3681 7.57883 18.6272 7.12423L17.324 6.3815C17.1989 6.60099 16.9721 6.83008 16.2753 7.50127L17.3159 8.58164ZM17.3515 4.46365C17.6707 5.06356 17.6601 5.79184 17.324 6.3815L18.6272 7.12423C19.2181 6.08737 19.2363 4.81286 18.6757 3.75912L17.3515 4.46365ZM17.4071 2.26326C16.8052 1.64834 16.3949 1.21787 15.9397 0.965158L15.2116 2.2766C15.4273 2.39635 15.657 2.61976 16.3352 3.31256L17.4071 2.26326ZM12.2795 3.37384C12.9374 2.66103 13.1608 2.43063 13.3732 2.30433L12.6065 1.0151C12.159 1.28125 11.7614 1.72366 11.1773 2.35647L12.2795 3.37384ZM15.9397 0.965158C14.8968 0.386152 13.6318 0.405285 12.6065 1.0151L13.3732 2.30433C13.9401 1.9672 14.6357 1.95689 15.2116 2.2766L15.9397 0.965158ZM10.3033 3.49094L16.1367 9.32428L17.1973 8.26362L11.364 2.43028L10.3033 3.49094ZM11.667 18.7106H18.3337V17.2106H11.667V18.7106Z" fill="#5DB379"/>
</svg>
