<svg width="25" height="25" viewBox="0 0 25 25" fill="none" xmlns="http://www.w3.org/2000/svg">
<circle cx="17.375" cy="18.127" r="2" stroke="#586261" stroke-width="1.5"/>
<circle cx="7.375" cy="18.127" r="2" stroke="#586261" stroke-width="1.5"/>
<path d="M11.375 9.12695V12.127" stroke="#586261" stroke-width="1.5" stroke-linecap="round"/>
<path d="M7.375 10.127V12.127" stroke="#586261" stroke-width="1.5" stroke-linecap="round"/>
<path d="M17.375 4.12695H15.375M15.375 4.12695H9.86028C8.63403 4.12695 8.0209 4.12695 7.46959 4.35531C6.91828 4.58368 6.48473 5.01722 5.61764 5.88431L3.83946 7.66249C3.11689 8.38506 2.7556 8.74635 2.5653 9.20578C2.375 9.66521 2.375 10.1761 2.375 11.198V13.127C2.375 15.484 2.375 16.6625 3.10723 17.3947C3.5941 17.8816 4.27828 18.0447 5.375 18.0994M15.375 4.12695V8.12695C15.375 10.0126 15.375 10.9554 15.9608 11.5412C16.5466 12.127 17.4894 12.127 19.375 12.127H22.375V13.127C22.375 15.484 22.375 16.6625 21.6428 17.3947C21.1559 17.8816 20.4717 18.0447 19.375 18.0994M9.375 18.127H15.375" stroke="#586261" stroke-width="1.5" stroke-linecap="round" stroke-linejoin="round"/>
<path d="M15.375 7.12695H17.0748C18.4331 7.12695 19.1123 7.12695 19.665 7.48066C20.2177 7.83437 20.5397 8.47507 21.1837 9.75645L22.375 12.127" stroke="#586261" stroke-width="1.5" stroke-linecap="round" stroke-linejoin="round"/>
</svg>
