<svg width="16" height="17" viewBox="0 0 16 17" fill="none" xmlns="http://www.w3.org/2000/svg">
<path d="M0 2.21429C0 1.75963 0.180612 1.32359 0.502103 1.0021C0.823594 0.680612 1.25963 0.5 1.71429 0.5H5.14286C5.59751 0.5 6.03355 0.680612 6.35504 1.0021C6.67653 1.32359 6.85714 1.75963 6.85714 2.21429V5.64286C6.85714 6.09751 6.67653 6.53355 6.35504 6.85504C6.03355 7.17653 5.59751 7.35714 5.14286 7.35714H1.71429C1.25963 7.35714 0.823594 7.17653 0.502103 6.85504C0.180612 6.53355 0 6.09751 0 5.64286V2.21429ZM1.71429 1.64286C1.56273 1.64286 1.41739 1.70306 1.31022 1.81022C1.20306 1.91739 1.14286 2.06273 1.14286 2.21429V5.64286C1.14286 5.79441 1.20306 5.93975 1.31022 6.04692C1.41739 6.15408 1.56273 6.21429 1.71429 6.21429H5.14286C5.29441 6.21429 5.43975 6.15408 5.54692 6.04692C5.65408 5.93975 5.71429 5.79441 5.71429 5.64286V2.21429C5.71429 2.06273 5.65408 1.91739 5.54692 1.81022C5.43975 1.70306 5.29441 1.64286 5.14286 1.64286H1.71429ZM9.14286 2.21429C9.14286 1.75963 9.32347 1.32359 9.64496 1.0021C9.96645 0.680612 10.4025 0.5 10.8571 0.5H14.2857C14.7404 0.5 15.1764 0.680612 15.4979 1.0021C15.8194 1.32359 16 1.75963 16 2.21429V5.64286C16 6.09751 15.8194 6.53355 15.4979 6.85504C15.1764 7.17653 14.7404 7.35714 14.2857 7.35714H10.8571C10.4025 7.35714 9.96645 7.17653 9.64496 6.85504C9.32347 6.53355 9.14286 6.09751 9.14286 5.64286V2.21429ZM10.8571 1.64286C10.7056 1.64286 10.5602 1.70306 10.4531 1.81022C10.3459 1.91739 10.2857 2.06273 10.2857 2.21429V5.64286C10.2857 5.79441 10.3459 5.93975 10.4531 6.04692C10.5602 6.15408 10.7056 6.21429 10.8571 6.21429H14.2857C14.4373 6.21429 14.5826 6.15408 14.6898 6.04692C14.7969 5.93975 14.8571 5.79441 14.8571 5.64286V2.21429C14.8571 2.06273 14.7969 1.91739 14.6898 1.81022C14.5826 1.70306 14.4373 1.64286 14.2857 1.64286H10.8571ZM0 11.3571C0 10.9025 0.180612 10.4665 0.502103 10.145C0.823594 9.82347 1.25963 9.64286 1.71429 9.64286H5.14286C5.59751 9.64286 6.03355 9.82347 6.35504 10.145C6.67653 10.4665 6.85714 10.9025 6.85714 11.3571V14.7857C6.85714 15.2404 6.67653 15.6764 6.35504 15.9979C6.03355 16.3194 5.59751 16.5 5.14286 16.5H1.71429C1.25963 16.5 0.823594 16.3194 0.502103 15.9979C0.180612 15.6764 0 15.2404 0 14.7857V11.3571ZM1.71429 10.7857C1.56273 10.7857 1.41739 10.8459 1.31022 10.9531C1.20306 11.0602 1.14286 11.2056 1.14286 11.3571V14.7857C1.14286 14.9373 1.20306 15.0826 1.31022 15.1898C1.41739 15.2969 1.56273 15.3571 1.71429 15.3571H5.14286C5.29441 15.3571 5.43975 15.2969 5.54692 15.1898C5.65408 15.0826 5.71429 14.9373 5.71429 14.7857V11.3571C5.71429 11.2056 5.65408 11.0602 5.54692 10.9531C5.43975 10.8459 5.29441 10.7857 5.14286 10.7857H1.71429ZM9.14286 11.3571C9.14286 10.9025 9.32347 10.4665 9.64496 10.145C9.96645 9.82347 10.4025 9.64286 10.8571 9.64286H14.2857C14.7404 9.64286 15.1764 9.82347 15.4979 10.145C15.8194 10.4665 16 10.9025 16 11.3571V14.7857C16 15.2404 15.8194 15.6764 15.4979 15.9979C15.1764 16.3194 14.7404 16.5 14.2857 16.5H10.8571C10.4025 16.5 9.96645 16.3194 9.64496 15.9979C9.32347 15.6764 9.14286 15.2404 9.14286 14.7857V11.3571ZM10.8571 10.7857C10.7056 10.7857 10.5602 10.8459 10.4531 10.9531C10.3459 11.0602 10.2857 11.2056 10.2857 11.3571V14.7857C10.2857 14.9373 10.3459 15.0826 10.4531 15.1898C10.5602 15.2969 10.7056 15.3571 10.8571 15.3571H14.2857C14.4373 15.3571 14.5826 15.2969 14.6898 15.1898C14.7969 15.0826 14.8571 14.9373 14.8571 14.7857V11.3571C14.8571 11.2056 14.7969 11.0602 14.6898 10.9531C14.5826 10.8459 14.4373 10.7857 14.2857 10.7857H10.8571Z" fill="black"/>
</svg>
