<svg width="24" height="25" viewBox="0 0 24 25" fill="none" xmlns="http://www.w3.org/2000/svg">
<path d="M21 12.127C21 11.2985 20.3284 10.627 19.5 10.627C18.6716 10.627 18 11.2985 18 12.127C18 12.9554 18.6716 13.627 19.5 13.627C20.3284 13.627 21 12.9554 21 12.127Z" stroke="#141B34" stroke-width="1.5"/>
<path d="M13.5 12.127C13.5 11.2985 12.8284 10.627 12 10.627C11.1716 10.627 10.5 11.2985 10.5 12.127C10.5 12.9554 11.1716 13.627 12 13.627C12.8284 13.627 13.5 12.9554 13.5 12.127Z" stroke="#141B34" stroke-width="1.5"/>
<path d="M6 12.127C6 11.2985 5.32843 10.627 4.5 10.627C3.67157 10.627 3 11.2985 3 12.127C3 12.9554 3.67157 13.627 4.5 13.627C5.32843 13.627 6 12.9554 6 12.127Z" stroke="#141B34" stroke-width="1.5"/>
</svg>
