<svg width="388" height="343" viewBox="0 0 388 343" fill="none" xmlns="http://www.w3.org/2000/svg">
<g clip-path="url(#clip0_7_3252)">
<path d="M163.12 98.6997C164.86 98.3331 166.587 97.9464 168.3 97.5397C210.52 87.8097 258.8 82.1697 295.41 99.3297C331.3 116.14 326.89 151.77 305.9 184.49C269.97 240.49 133.9 293.63 97.1801 236.69C85.3101 218.29 105.77 185.89 91.0501 164.2C74.2901 139.5 -3.26986 155.12 12.2301 100.55C20.8201 70.2897 42.8601 72.0697 66.5401 81.8897C80.1301 87.5197 93.1101 94.5297 107.17 99.2897C124.24 105.08 144.16 102.76 163.12 98.6997Z" fill="#FF7650"/>
<path opacity="0.9" d="M163.12 98.6997C164.86 98.3331 166.587 97.9464 168.3 97.5397C210.52 87.8097 258.8 82.1697 295.41 99.3297C331.3 116.14 326.89 151.77 305.9 184.49C269.97 240.49 133.9 293.63 97.1801 236.69C85.3101 218.29 105.77 185.89 91.0501 164.2C74.2901 139.5 -3.26986 155.12 12.2301 100.55C20.8201 70.2897 42.8601 72.0697 66.5401 81.8897C80.1301 87.5197 93.1101 94.5297 107.17 99.2897C124.24 105.08 144.16 102.76 163.12 98.6997Z" fill="#B4DCC1"/>
<path d="M194 342.56C301.083 342.56 387.89 337.492 387.89 331.24C387.89 324.988 301.083 319.92 194 319.92C86.9179 319.92 0.110352 324.988 0.110352 331.24C0.110352 337.492 86.9179 342.56 194 342.56Z" fill="#F5F5F5"/>
<path d="M70.1094 253.69H198.549V320C198.549 320.85 198.382 321.691 198.057 322.476C197.732 323.261 197.255 323.975 196.654 324.575C196.054 325.176 195.34 325.653 194.555 325.978C193.77 326.303 192.929 326.47 192.079 326.47H76.5794C75.7297 326.47 74.8884 326.303 74.1034 325.978C73.3184 325.653 72.6052 325.176 72.0044 324.575C71.4036 323.975 70.927 323.261 70.6019 322.476C70.2767 321.691 70.1094 320.85 70.1094 320V253.69Z" fill="#DDCFFF"/>
<path d="M70.1099 253.69H161L149.82 239.38C148.59 237.81 145.55 236.54 143.02 236.54H61.2799C58.7599 236.54 57.6999 237.81 58.9299 239.38L70.1099 253.69Z" fill="#DDCFFF"/>
<path opacity="0.2" d="M70.1099 253.69H161L149.82 239.38C148.59 237.81 145.55 236.54 143.02 236.54H61.2799C58.7599 236.54 57.6999 237.81 58.9299 239.38L70.1099 253.69Z" fill="black"/>
<path d="M198.55 253.69H107.67L118.85 244.36C120.08 243.36 123.12 242.51 125.65 242.51H207.38C209.91 242.51 210.96 243.34 209.73 244.36L198.55 253.69Z" fill="#DDCFFF"/>
<path opacity="0.2" d="M107.67 253.69H198.55V320C198.55 320.85 198.383 321.691 198.057 322.476C197.732 323.261 197.256 323.975 196.655 324.575C196.054 325.176 195.341 325.653 194.556 325.978C193.771 326.303 192.93 326.47 192.08 326.47H114.14C113.29 326.47 112.449 326.303 111.664 325.978C110.879 325.653 110.166 325.176 109.565 324.575C108.964 323.975 108.488 323.261 108.162 322.476C107.837 321.691 107.67 320.85 107.67 320V253.69Z" fill="white"/>
<path opacity="0.5" d="M81.3896 253.69V299.17L84.5296 296.69L86.7397 299.17L88.6597 296.41L90.6297 299.17L93.3696 297.1L96.3896 299.17V253.69H81.3896Z" fill="white"/>
<path d="M101.72 154.48L85.5703 140.92" stroke="#DDCFFF" stroke-miterlimit="10"/>
<path d="M110.09 161.509L105.17 157.369" stroke="#DDCFFF" stroke-miterlimit="10"/>
<path d="M158.471 189.889L211.751 123.299L140.811 63.7393L93.8105 117.669L86.8105 131.159C86.463 131.542 86.1982 131.993 86.0327 132.483C85.8672 132.973 85.8046 133.491 85.8487 134.007C85.8928 134.522 86.0427 135.023 86.2891 135.477C86.5354 135.932 86.8729 136.331 87.2805 136.649L151.281 190.389C152.321 191.228 153.64 191.642 154.974 191.55C156.307 191.457 157.556 190.864 158.471 189.889Z" fill="#DDCFFF"/>
<path opacity="0.5" d="M121.93 140.779L114.26 153.129L117.35 153.799L118.4 156.659L120.45 156.779L121.4 159.229L123.91 159.959L125.84 163.029L133.51 150.679L121.93 140.779Z" fill="white"/>
<path opacity="0.1" d="M209.43 121.349L161.65 174.649L93.7803 117.669L140.81 63.7393L209.43 121.349Z" fill="black"/>
<path d="M209.43 121.35L161.65 174.65L181.43 176.11L228.47 122.18L209.43 121.35Z" fill="#DDCFFF"/>
<path opacity="0.3" d="M209.43 121.35L161.65 174.65L181.43 176.11L228.47 122.18L209.43 121.35Z" fill="black"/>
<path d="M121.78 62.8994L73.9902 116.209L93.7802 117.669L140.81 63.7394L121.78 62.8994Z" fill="#DDCFFF"/>
<path opacity="0.4" d="M121.78 62.8994L73.9902 116.209L93.7802 117.669L140.81 63.7394L121.78 62.8994Z" fill="black"/>
<path opacity="0.1" d="M194.72 137.759L209.43 121.349L140.81 63.7393L132.03 84.8992L194.72 137.759Z" fill="black"/>
<path opacity="0.2" d="M93.7803 117.669L140.81 63.7393L132.03 84.8992L98.9103 121.979L93.7803 117.669Z" fill="black"/>
<path d="M226 20.9992C226.19 21.6392 226 22.2692 225.58 22.3892C225.16 22.5092 224.67 22.0892 224.48 21.4492C224.29 20.8092 224.48 20.1792 224.9 20.0492C225.32 19.9192 225.82 20.3592 226 20.9992Z" fill="#263238"/>
<path d="M226.07 22.2598C225.882 24.4601 225.391 26.6238 224.61 28.6898C225.145 28.8752 225.714 28.9418 226.277 28.8848C226.84 28.8278 227.384 28.6486 227.87 28.3598L226.07 22.2598Z" fill="#ED847E"/>
<path d="M227.33 16.7296C227.415 16.6807 227.479 16.6025 227.51 16.5096C227.529 16.4611 227.538 16.4093 227.536 16.3573C227.534 16.3054 227.521 16.2544 227.499 16.2075C227.476 16.1607 227.444 16.1189 227.405 16.0849C227.366 16.0508 227.32 16.0252 227.27 16.0096C226.685 15.7849 226.053 15.7049 225.43 15.7763C224.807 15.8477 224.21 16.0683 223.69 16.4196C223.623 16.4881 223.582 16.5788 223.576 16.675C223.57 16.7711 223.599 16.8662 223.657 16.9428C223.715 17.0194 223.799 17.0724 223.894 17.092C223.988 17.1116 224.086 17.0966 224.17 17.0496C224.586 16.7771 225.06 16.6077 225.554 16.5555C226.048 16.5034 226.547 16.5699 227.01 16.7496C227.062 16.7685 227.117 16.7765 227.172 16.773C227.228 16.7696 227.281 16.7548 227.33 16.7296Z" fill="#263238"/>
<path d="M248.24 25.28C248.68 30.58 249.99 40.28 253.12 42.52C253.12 42.52 252.38 48.89 241.12 50.52C228.78 52.34 234.32 45.26 234.32 45.26C240.81 42.66 239.9 37.69 238.04 33.17L242.8 27.71C244.63 25.69 248 22.57 248.24 25.28Z" fill="#974A06"/>
<path d="M257.15 45.11C258.15 44.2 256.15 40.56 254.92 40.05C251.7 38.7 238.53 40.05 233.58 44.3C233.169 45.0032 232.921 45.7894 232.854 46.6009C232.786 47.4124 232.901 48.2287 233.19 48.99L257.15 45.11Z" fill="white"/>
<path d="M299.09 312.409C298.765 312.557 298.414 312.639 298.057 312.649C297.699 312.66 297.344 312.598 297.011 312.469C296.879 312.365 296.782 312.223 296.734 312.062C296.686 311.901 296.688 311.729 296.74 311.569C296.767 311.438 296.822 311.315 296.902 311.208C296.981 311.101 297.083 311.012 297.201 310.949C298.281 310.319 300.95 311.149 301.06 311.189C301.097 311.199 301.13 311.219 301.155 311.248C301.18 311.276 301.196 311.312 301.201 311.349C301.206 311.389 301.199 311.429 301.181 311.464C301.163 311.5 301.135 311.53 301.101 311.549C300.461 311.903 299.788 312.191 299.09 312.409ZM297.631 311.189L297.4 311.289C297.332 311.326 297.273 311.378 297.226 311.44C297.18 311.502 297.147 311.573 297.131 311.649C297.061 312.009 297.2 312.119 297.24 312.149C297.72 312.489 299.351 311.999 300.481 311.429C299.56 311.14 298.587 311.058 297.631 311.189Z" fill="#DDCFFF"/>
<path d="M301.06 311.559C301.028 311.569 300.993 311.569 300.96 311.559C299.96 311.359 297.87 310.109 297.76 309.169C297.745 309.021 297.781 308.872 297.863 308.748C297.945 308.624 298.068 308.533 298.21 308.489C298.349 308.427 298.499 308.396 298.65 308.396C298.802 308.396 298.952 308.427 299.09 308.489C300.25 308.969 301.15 311.209 301.18 311.299C301.2 311.329 301.211 311.364 301.211 311.399C301.211 311.435 301.2 311.47 301.18 311.499C301.166 311.518 301.148 311.533 301.127 311.543C301.107 311.554 301.084 311.559 301.06 311.559ZM298.46 308.829C298.431 308.821 298.4 308.821 298.37 308.829C298.14 308.929 298.15 309.049 298.16 309.099C298.22 309.659 299.64 310.669 300.65 311.039C300.35 310.389 299.65 309.129 298.94 308.829C298.786 308.77 298.615 308.77 298.46 308.829Z" fill="#DDCFFF"/>
<path d="M240.48 323.149C239.41 323.149 238.38 322.999 238.03 322.519C237.941 322.394 237.893 322.244 237.893 322.089C237.893 321.935 237.941 321.785 238.03 321.659C238.097 321.544 238.186 321.442 238.293 321.362C238.399 321.281 238.521 321.222 238.65 321.189C240.04 320.819 242.96 322.479 243.08 322.549C243.117 322.567 243.148 322.597 243.167 322.633C243.186 322.67 243.192 322.711 243.186 322.752C243.179 322.793 243.159 322.83 243.129 322.858C243.099 322.887 243.061 322.905 243.02 322.909C242.183 323.066 241.333 323.146 240.48 323.149ZM239.16 321.529C239.032 321.524 238.903 321.541 238.78 321.579C238.62 321.615 238.48 321.712 238.39 321.849C238.25 322.099 238.3 322.219 238.39 322.289C238.78 322.829 240.89 322.839 242.39 322.619C241.394 322.051 240.297 321.681 239.16 321.529Z" fill="#DDCFFF"/>
<path d="M243 322.92H242.92C241.92 322.47 239.92 320.66 240.07 319.72C240.07 319.5 240.27 319.22 240.81 319.17C241.006 319.148 241.204 319.167 241.391 319.226C241.579 319.284 241.752 319.381 241.9 319.51C242.97 320.38 243.19 322.63 243.2 322.72C243.206 322.754 243.201 322.79 243.187 322.822C243.173 322.854 243.15 322.881 243.12 322.9C243.084 322.92 243.042 322.927 243 322.92ZM241 319.54H240.88C240.52 319.54 240.5 319.72 240.49 319.76C240.4 320.33 241.76 321.76 242.78 322.37C242.693 321.416 242.309 320.513 241.68 319.79C241.493 319.625 241.25 319.535 241 319.54Z" fill="#DDCFFF"/>
<path d="M252.18 322.719H243.83L243 303.399H251.35L252.18 322.719Z" fill="#974A06"/>
<path d="M310.83 309.529L303.14 312.179L295.16 293.969L302.85 291.319L310.83 309.529Z" fill="#974A06"/>
<path d="M301.31 310.269L310.31 307.519C310.469 307.471 310.64 307.478 310.795 307.54C310.95 307.601 311.078 307.714 311.16 307.859L314.91 314.459C315 314.621 315.053 314.8 315.064 314.985C315.075 315.17 315.044 315.354 314.974 315.525C314.904 315.696 314.796 315.849 314.658 315.973C314.521 316.097 314.357 316.188 314.18 316.239C311.03 317.149 309.46 317.429 305.52 318.639C303.09 319.379 296.97 321.699 293.52 322.389C290.07 323.079 288.96 319.779 290.3 319.189C296.3 316.539 298.76 313.529 300.19 311.189C300.44 310.757 300.838 310.43 301.31 310.269Z" fill="#263238"/>
<path d="M243.89 321.75H253C253.165 321.752 253.324 321.81 253.453 321.913C253.582 322.016 253.672 322.159 253.71 322.32L255.36 329.74C255.401 329.919 255.401 330.105 255.359 330.284C255.318 330.463 255.236 330.63 255.12 330.772C255.005 330.915 254.858 331.029 254.692 331.107C254.525 331.184 254.343 331.223 254.16 331.22C250.87 331.17 246.16 330.97 241.99 330.97C237.16 330.97 235.13 331.24 229.46 331.24C226.04 331.24 225.09 327.78 226.52 327.46C233.05 326.03 236.24 325.88 241.88 322.4C242.478 322.004 243.173 321.779 243.89 321.75Z" fill="#263238"/>
<path d="M268.14 47.8398C270.57 50.0698 272.67 52.2999 274.85 54.6299C277.03 56.9599 279.05 59.3699 281.01 61.9398C283.057 64.5507 284.915 67.3044 286.57 70.1798C287.474 71.7647 288.257 73.4162 288.91 75.1198C289.08 75.5898 289.25 76.0399 289.39 76.5499C289.554 77.0657 289.691 77.5897 289.8 78.1198L289.97 78.9498L290.09 79.8698C290.202 80.7128 290.202 81.5669 290.09 82.4099C289.861 84.001 289.272 85.5193 288.37 86.8499C287.712 87.8216 286.939 88.7112 286.07 89.4998C284.672 90.768 283.144 91.8843 281.51 92.8298C278.633 94.4759 275.622 95.8775 272.51 97.0199C266.607 99.2112 260.524 100.884 254.33 102.02L252.58 96.0199C258.01 93.6699 263.51 91.1298 268.58 88.4198C271.048 87.1252 273.424 85.6617 275.69 84.0398C276.634 83.3692 277.503 82.598 278.28 81.7399C278.516 81.4861 278.715 81.1999 278.87 80.8898C278.95 80.7198 278.87 80.7399 278.77 81.0999C278.7 81.7699 278.71 81.2498 278.55 80.8898C278.5 80.7198 278.41 80.4899 278.32 80.2699C278.23 80.0499 278.12 79.7998 278.01 79.5598C277.468 78.4692 276.864 77.4108 276.2 76.3898C274.656 74.0967 272.986 71.8901 271.2 69.7798C269.36 67.5998 267.42 65.4299 265.43 63.2999C263.44 61.1699 261.35 59.0198 259.43 57.0398L268.14 47.8398Z" fill="#974A06"/>
<path d="M254.87 95.0693L247 97.4493L252.06 105.769C252.06 105.769 256.71 103.849 257.74 99.8993L254.87 95.0693Z" fill="#974A06"/>
<path d="M243.82 100.399L246.92 107.259L252.01 105.779L246.95 97.4492L243.82 100.399Z" fill="#974A06"/>
<path d="M249.7 50.0999C248.95 58.0999 265.87 70.4799 265.87 70.4799L282.16 59.3299C279.331 54.1128 275.196 49.7195 270.16 46.5799C260.82 40.5999 250.64 40.1599 249.7 50.0999Z" fill="#DDCFFF"/>
<g opacity="0.3">
<path d="M249.7 50.0999C248.95 58.0999 265.87 70.4799 265.87 70.4799L282.16 59.3299C279.331 54.1128 275.196 49.7195 270.16 46.5799C260.82 40.5999 250.64 40.1599 249.7 50.0999Z" fill="#FCB90E"/>
</g>
<path d="M222 49.4599C222 49.4599 214.69 60.6799 232.05 120.86L276.19 114.34C275.57 108.24 268.19 81.6299 267.94 52.5399C267.93 51.135 267.635 49.7469 267.074 48.4591C266.512 47.1714 265.696 46.0107 264.673 45.0472C263.651 44.0837 262.444 43.3373 261.125 42.8531C259.807 42.3689 258.403 42.1569 257 42.2299C255.72 42.2999 254.4 42.3899 253.09 42.5199C246.789 43.0817 240.525 44.0066 234.33 45.2899C230.119 46.3613 225.997 47.7554 222 49.4599Z" fill="#DDCFFF"/>
<g opacity="0.3">
<path d="M222 49.4599C222 49.4599 214.69 60.6799 232.05 120.86L276.19 114.34C275.57 108.24 268.19 81.6299 267.94 52.5399C267.93 51.135 267.635 49.7469 267.074 48.4591C266.512 47.1714 265.696 46.0107 264.673 45.0472C263.651 44.0837 262.444 43.3373 261.125 42.8531C259.807 42.3689 258.403 42.1569 257 42.2299C255.72 42.2999 254.4 42.3899 253.09 42.5199C246.789 43.0817 240.525 44.0066 234.33 45.2899C230.119 46.3613 225.997 47.7554 222 49.4599Z" fill="#FCB90E"/>
</g>
<path opacity="0.2" d="M220.92 68.7999L221.07 68.6299L231.45 69.5499C233.03 76.2499 227.25 85.3899 224.2 89.6299C222.732 82.7508 221.637 75.7973 220.92 68.7999Z" fill="black"/>
<path opacity="0.2" d="M243 303.409L243.43 313.369H251.78L251.35 303.409H243Z" fill="black"/>
<path opacity="0.2" d="M302.85 291.319L295.16 293.969L299.28 303.359L306.97 300.709L302.85 291.319Z" fill="black"/>
<path d="M247.15 13.3199C248.99 21.3899 250.47 26.0199 247.66 31.3199C243.44 39.2099 232.58 38.4499 228.37 31.0899C224.58 24.4599 222.2 12.3799 229.04 6.93987C230.539 5.73634 232.32 4.9351 234.215 4.61197C236.11 4.28883 238.056 4.45447 239.869 5.09321C241.682 5.73196 243.303 6.8227 244.577 8.26224C245.851 9.70179 246.736 11.4426 247.15 13.3199Z" fill="#974A06"/>
<path d="M230.941 21.2299L227.871 23.1099L228.161 12.6099C226.181 12.6949 224.228 12.1295 222.601 10.9999C223.711 9.93992 240.991 3.88993 246.381 4.93993C246.941 4.70993 247.621 3.66992 247.621 3.66992C247.621 3.66992 247.831 4.97993 246.921 5.47993C247.581 5.34993 249.231 5.66992 249.691 6.63992C248.933 6.43316 248.129 6.47879 247.401 6.76992C247.401 6.76992 253.401 7.67992 251.271 15.9999C248.881 25.1699 249.671 30.4399 249.671 30.4399C249.671 30.4399 245.211 33.8899 241.331 33.2499C237.191 28.6899 231.211 23.2099 230.941 21.2299Z" fill="#263238"/>
<path d="M225.06 10.1699C220.19 10.1699 218.44 7.7899 217.19 5.7899C220.69 5.4199 227.98 3.1699 233.39 2.7899C238.8 2.4099 244.73 3.4199 242.94 5.7899C241.15 8.1599 225.06 10.1699 225.06 10.1699Z" fill="#263238"/>
<path d="M226.131 7.99957C222.131 7.43957 218.231 3.66957 221.231 0.0595703C222.341 2.70957 229.831 2.39957 235.151 1.28957C242.151 -0.170426 247.001 2.18957 244.521 6.95957C243.161 9.56957 226.131 7.99957 226.131 7.99957Z" fill="#263238"/>
<path d="M235.261 18.8399C235.833 20.8145 235.742 22.9223 235.001 24.8399C234.001 27.3499 231.781 26.8399 230.621 24.6699C229.621 22.6699 228.861 19.0399 230.561 17.2299C232.261 15.4199 234.541 16.4699 235.261 18.8399Z" fill="#974A06"/>
<path d="M247.71 118.55C247.71 118.55 254.87 179.5 260.07 203.38C265.76 229.54 293.83 300.86 293.83 300.86L307.83 296.02C307.83 296.02 289.83 242.32 285.05 205.75C281.38 177.67 276.15 114.34 276.15 114.34L247.71 118.55Z" fill="#263238"/>
<path d="M290.25 296.379C290.18 296.379 293.12 302.379 293.12 302.379L309.47 297.069L307.55 292.189L290.25 296.379Z" fill="#FCB90E"/>
<path opacity="0.3" d="M251.66 149.819C253.9 166.759 256.77 186.819 259.29 199.629C263 179.999 263.87 155.209 251.66 149.819Z" fill="black"/>
<path d="M232.05 120.86C232.05 120.86 226.11 178.12 227.05 203.56C227.99 230.02 240.35 311.44 240.35 311.44H254.48C254.48 311.44 251.88 231.56 252.48 205.58C253.17 177.25 263.79 116.17 263.79 116.17L232.05 120.86Z" fill="#263238"/>
<path d="M237.601 305.81C237.541 305.81 238.401 311.67 238.401 311.67H255.591L256.061 306.44L237.601 305.81Z" fill="#FCB90E"/>
<path d="M229.31 63.5192C227.75 65.9992 226.17 68.2292 224.53 70.5192C222.89 72.8092 221.17 75.0192 219.42 77.2192C215.853 81.6822 211.987 85.8985 207.85 89.8392C206.73 90.8392 205.7 91.8392 204.49 92.7492L203.61 93.4592L203.17 93.8092C203.01 93.9392 202.94 94.0092 202.61 94.2492C201.619 94.9559 200.531 95.515 199.38 95.9092C197.597 96.518 195.733 96.8551 193.85 96.9092C192.257 96.9627 190.662 96.8925 189.08 96.6992C183.296 95.9409 177.654 94.3441 172.33 91.9592L174.06 85.9592C179.176 86.5663 184.329 86.8135 189.48 86.6992C190.619 86.6396 191.755 86.516 192.88 86.3292C193.728 86.2053 194.552 85.9488 195.32 85.5692C195.56 85.4392 195.69 85.3092 195.66 85.2792C195.63 85.2492 195.79 85.1492 195.88 85.0592L196.22 84.7492L196.89 84.1192C197.79 83.3192 198.64 82.3492 199.52 81.4692C201.25 79.6092 202.97 77.6992 204.6 75.6692C206.23 73.6392 207.88 71.5992 209.48 69.4992C211.08 67.3992 212.63 65.2692 214.19 63.1392C215.75 61.0092 217.27 58.7692 218.71 56.6992L229.31 63.5192Z" fill="#974A06"/>
<path d="M235.12 60.8696C238.48 71.8696 218.97 84.0596 218.97 84.0596L206.29 67.9096C209.148 62.5844 212.677 57.6475 216.79 53.2196C225.42 43.8296 232.56 52.4996 235.12 60.8696Z" fill="#DDCFFF"/>
<g opacity="0.3">
<path d="M235.12 60.8696C238.48 71.8696 218.97 84.0596 218.97 84.0596L206.29 67.9096C209.148 62.5844 212.677 57.6475 216.79 53.2196C225.42 43.8296 232.56 52.4996 235.12 60.8696Z" fill="#FCB90E"/>
</g>
<path d="M177 86.3292L166.73 84.4492L167.81 93.3292C167.81 93.3292 173.15 96.3292 177.02 91.6392L177 86.3292Z" fill="#974A06"/>
<path d="M162.771 86.4492L164.991 92.8592L167.79 93.3292L166.711 84.4492L162.771 86.4492Z" fill="#974A06"/>
</g>
<defs>
<clipPath id="clip0_7_3252">
<rect width="388" height="343" fill="white"/>
</clipPath>
</defs>
</svg>
