<svg width="18" height="15" viewBox="0 0 18 15" fill="none" xmlns="http://www.w3.org/2000/svg">
<path d="M2.00654 13.341L2.31643 12.9486L2.00654 13.341ZM1.54433 12.906L1.91754 12.5732L1.54433 12.906ZM16.4563 12.906L16.0831 12.5732L16.4563 12.906ZM15.9941 13.341L15.6842 12.9486L15.9941 13.341ZM15.9941 1.6591L15.6842 2.05149L15.9941 1.6591ZM16.4563 2.09412L16.0831 2.42686L16.4563 2.09412ZM2.00654 1.6591L2.31643 2.05149L2.00654 1.6591ZM1.54433 2.09412L1.91754 2.42686L1.54433 2.09412ZM7.33366 10.3334C7.05752 10.3334 6.83366 10.5572 6.83366 10.8334C6.83366 11.1095 7.05752 11.3334 7.33366 11.3334V10.3334ZM8.58366 11.3334C8.8598 11.3334 9.08366 11.1095 9.08366 10.8334C9.08366 10.5572 8.8598 10.3334 8.58366 10.3334V11.3334ZM11.0837 10.3334C10.8075 10.3334 10.5837 10.5572 10.5837 10.8334C10.5837 11.1095 10.8075 11.3334 11.0837 11.3334V10.3334ZM14.0003 11.3334C14.2765 11.3334 14.5003 11.1095 14.5003 10.8334C14.5003 10.5572 14.2765 10.3334 14.0003 10.3334V11.3334ZM7.75033 1.33337H10.2503V0.333374H7.75033V1.33337ZM10.2503 13.6667H7.75033V14.6667H10.2503V13.6667ZM7.75033 13.6667C6.17252 13.6667 5.03122 13.666 4.15209 13.5667C3.28215 13.4684 2.73518 13.2793 2.31643 12.9486L1.69665 13.7334C2.32346 14.2284 3.08232 14.4522 4.03984 14.5603C4.98817 14.6675 6.19599 14.6667 7.75033 14.6667V13.6667ZM0.166992 7.50004C0.166992 8.96078 0.166041 10.1038 0.280675 11.0027C0.397073 11.9155 0.639263 12.6421 1.17111 13.2387L1.91754 12.5732C1.57205 12.1857 1.37558 11.6834 1.27264 10.8762C1.16794 10.0552 1.16699 8.98721 1.16699 7.50004H0.166992ZM2.31643 12.9486C2.17175 12.8343 2.03832 12.7087 1.91754 12.5732L1.17111 13.2387C1.33098 13.418 1.50686 13.5835 1.69665 13.7334L2.31643 12.9486ZM16.8337 7.50004C16.8337 8.98721 16.8327 10.0552 16.728 10.8762C16.6251 11.6834 16.4286 12.1857 16.0831 12.5732L16.8295 13.2387C17.3614 12.6421 17.6036 11.9155 17.72 11.0027C17.8346 10.1038 17.8337 8.96078 17.8337 7.50004H16.8337ZM10.2503 14.6667C11.8047 14.6667 13.0125 14.6675 13.9608 14.5603C14.9183 14.4522 15.6772 14.2284 16.304 13.7334L15.6842 12.9486C15.2655 13.2793 14.7185 13.4684 13.8486 13.5667C12.9694 13.666 11.8281 13.6667 10.2503 13.6667V14.6667ZM16.0831 12.5732C15.9623 12.7087 15.8289 12.8343 15.6842 12.9486L16.304 13.7334C16.4938 13.5835 16.6697 13.418 16.8295 13.2387L16.0831 12.5732ZM10.2503 1.33337C11.8281 1.33337 12.9694 1.33412 13.8486 1.43343C14.7185 1.5317 15.2655 1.72078 15.6842 2.05149L16.304 1.26671C15.6772 0.771693 14.9183 0.547912 13.9608 0.43975C13.0125 0.332625 11.8047 0.333374 10.2503 0.333374V1.33337ZM17.8337 7.50004C17.8337 6.0393 17.8346 4.89633 17.72 3.99739C17.6036 3.08463 17.3614 2.35794 16.8295 1.76139L16.0831 2.42686C16.4286 2.81437 16.6251 3.31669 16.728 4.12389C16.8327 4.94492 16.8337 6.01287 16.8337 7.50004H17.8337ZM15.6842 2.05149C15.8289 2.16574 15.9623 2.29138 16.0831 2.42686L16.8295 1.76139C16.6697 1.58208 16.4938 1.41659 16.304 1.26671L15.6842 2.05149ZM7.75033 0.333374C6.19599 0.333374 4.98817 0.332625 4.03984 0.43975C3.08232 0.547912 2.32346 0.771693 1.69665 1.26671L2.31643 2.05149C2.73518 1.72078 3.28215 1.5317 4.15209 1.43343C5.03122 1.33412 6.17252 1.33337 7.75033 1.33337V0.333374ZM1.16699 7.50004C1.16699 6.01287 1.16794 4.94492 1.27264 4.12389C1.37558 3.31669 1.57205 2.81437 1.91754 2.42686L1.17111 1.76139C0.639263 2.35794 0.397073 3.08463 0.280675 3.99739C0.166041 4.89633 0.166992 6.0393 0.166992 7.50004H1.16699ZM1.69665 1.26671C1.50686 1.41659 1.33098 1.58208 1.17111 1.76139L1.91754 2.42686C2.03832 2.29138 2.17175 2.16574 2.31643 2.05149L1.69665 1.26671ZM7.33366 11.3334H8.58366V10.3334H7.33366V11.3334ZM11.0837 11.3334H14.0003V10.3334H11.0837V11.3334ZM0.666992 5.50004H17.3337V4.50004H0.666992V5.50004Z" fill="white"/>
</svg>
