<svg width="50" height="51" viewBox="0 0 50 51" fill="none" xmlns="http://www.w3.org/2000/svg">
<path d="M25 50.5C38.2138 50.5 48.9258 39.7881 48.9258 26.5742C48.9258 13.3604 38.2138 2.64844 25 2.64844C11.7862 2.64844 1.07422 13.3604 1.07422 26.5742C1.07422 39.7881 11.7862 50.5 25 50.5Z" fill="#FFCA45"/>
<path d="M45.4084 39.0672C37.5133 51.9409 19.1411 54.2681 8.30784 43.7146C5.55794 32.85 2.80813 21.9854 0.0578413 11.1209C-0.220479 10.0193 0.532451 8.87965 1.73948 8.57399C12.2729 5.90758 22.8066 3.24195 33.3401 0.575938C34.5481 0.270274 35.7522 0.914805 36.0315 2.01637C39.1566 14.3668 42.2827 26.7169 45.4084 39.0672Z" fill="#EAF2FF"/>
<path d="M30.7005 9.87219L8.4844 15.495C8.29608 15.5427 8.09654 15.5136 7.92968 15.4141C7.76282 15.3147 7.64231 15.153 7.59465 14.9647C7.54699 14.7763 7.5761 14.5768 7.67556 14.41C7.77503 14.2431 7.9367 14.1226 8.12502 14.0749L30.3411 8.45207C30.4344 8.42847 30.5314 8.42347 30.6265 8.43736C30.7217 8.45124 30.8132 8.48373 30.8959 8.53298C30.9785 8.58223 31.0506 8.64727 31.1081 8.72439C31.1656 8.80151 31.2073 8.8892 31.2309 8.98244C31.2545 9.07569 31.2595 9.17267 31.2456 9.26785C31.2317 9.36303 31.1992 9.45454 31.15 9.53716C31.1007 9.61978 31.0357 9.69189 30.9586 9.74937C30.8814 9.80686 30.7938 9.84859 30.7005 9.87219ZM32.0663 15.2685L9.85022 20.8913C9.6619 20.939 9.46236 20.9099 9.2955 20.8104C9.21288 20.7612 9.14077 20.6961 9.08329 20.619C9.0258 20.5419 8.98407 20.4542 8.96047 20.361C8.93687 20.2677 8.93187 20.1707 8.94576 20.0756C8.95964 19.9804 8.99214 19.8889 9.04138 19.8062C9.14085 19.6394 9.30252 19.5189 9.49084 19.4712L31.707 13.8484C31.8002 13.8248 31.8972 13.8198 31.9924 13.8336C32.0875 13.8475 32.1791 13.88 32.2617 13.9293C32.3443 13.9785 32.4164 14.0436 32.4739 14.1207C32.5314 14.1978 32.5731 14.2855 32.5967 14.3787C32.6203 14.472 32.6253 14.569 32.6114 14.6641C32.5975 14.7593 32.565 14.8508 32.5158 14.9334C32.4665 15.0161 32.4015 15.0882 32.3244 15.1457C32.2473 15.2031 32.1596 15.2449 32.0663 15.2685ZM33.498 20.9251L11.2819 26.548C11.0935 26.5956 10.894 26.5665 10.7271 26.4671C10.5603 26.3676 10.4398 26.2059 10.3921 26.0176C10.3445 25.8293 10.3736 25.6297 10.473 25.4629C10.5725 25.296 10.7342 25.1755 10.9225 25.1279L33.1386 19.505C33.2318 19.4814 33.3288 19.4764 33.424 19.4903C33.5192 19.5042 33.6107 19.5367 33.6933 19.5859C33.7759 19.6352 33.848 19.7002 33.9055 19.7773C33.963 19.8544 34.0047 19.9421 34.0283 20.0354C34.0519 20.1286 34.0569 20.2256 34.0431 20.3208C34.0292 20.416 33.9967 20.5075 33.9474 20.5901C33.8982 20.6727 33.8331 20.7448 33.756 20.8023C33.6789 20.8598 33.5912 20.9015 33.498 20.9251ZM34.69 25.635L12.4739 31.2578C12.2855 31.3055 12.086 31.2764 11.9191 31.1769C11.7523 31.0775 11.6318 30.9158 11.5841 30.7275C11.5364 30.5391 11.5656 30.3396 11.665 30.1727C11.7645 30.0059 11.9262 29.8854 12.1145 29.8377L34.3306 24.2149C34.5189 24.1672 34.7184 24.1963 34.8853 24.2958C35.0522 24.3952 35.1727 24.5569 35.2203 24.7452C35.268 24.9336 35.2389 25.1331 35.1394 25.3C35.04 25.4668 34.8783 25.5873 34.69 25.635Z" fill="#76BEFF"/>
<path d="M23.7421 39.7891C24.647 43.3648 22.4742 47.0104 18.8984 47.9154C15.3227 48.8204 11.6771 46.6475 10.7721 43.0717C9.86715 39.496 12.0401 35.8505 15.6158 34.9455C19.1915 34.0405 22.8371 36.2133 23.7421 39.7891Z" fill="#36B990"/>
<path d="M16.853 45.0078C16.7597 45.0315 16.6627 45.0366 16.5676 45.0227C16.4724 45.0088 16.3809 44.9763 16.2983 44.9269L12.9766 42.947C12.8097 42.8476 12.6892 42.6859 12.6415 42.4976C12.5939 42.3093 12.623 42.1097 12.7224 41.9428C12.8219 41.776 12.9835 41.6555 13.1718 41.6079C13.3601 41.5602 13.5596 41.5893 13.7265 41.6887L16.4191 43.2937L19.8624 37.5167C19.9632 37.3525 20.1246 37.2347 20.3116 37.1887C20.4987 37.1427 20.6963 37.1722 20.8617 37.2708C21.0272 37.3694 21.1471 37.5292 21.1956 37.7156C21.2441 37.902 21.2172 38.1 21.1207 38.2668L17.3024 44.6729C17.2532 44.7556 17.1882 44.8277 17.1111 44.8852C17.0339 44.9426 16.9462 44.9843 16.853 45.0078Z" fill="white"/>
<path d="M36.6186 33.256L26.4888 35.8198C26.3955 35.8434 26.2986 35.8484 26.2034 35.8346C26.1082 35.8207 26.0167 35.7882 25.9341 35.7389C25.8515 35.6897 25.7793 35.6246 25.7219 35.5475C25.6644 35.4704 25.6226 35.3827 25.599 35.2895C25.5754 35.1962 25.5704 35.0992 25.5843 35.0041C25.5982 34.9089 25.6307 34.8174 25.68 34.7348C25.7292 34.6521 25.7942 34.58 25.8714 34.5225C25.9485 34.4651 26.0362 34.4233 26.1294 34.3997L36.2592 31.8359C36.4475 31.7882 36.6471 31.8173 36.8139 31.9168C36.9808 32.0162 37.1013 32.1779 37.1489 32.3662C37.1966 32.5546 37.1675 32.7541 37.068 32.9209C36.9686 33.0878 36.8069 33.2083 36.6186 33.256ZM37.7528 37.7371L27.623 40.3009C27.5297 40.3245 27.4327 40.3295 27.3376 40.3156C27.2424 40.3017 27.1509 40.2692 27.0683 40.22C26.9856 40.1707 26.9135 40.1057 26.856 40.0286C26.7986 39.9515 26.7568 39.8638 26.7332 39.7705C26.7096 39.6773 26.7046 39.5803 26.7185 39.4851C26.7324 39.3899 26.7649 39.2984 26.8141 39.2158C26.8634 39.1332 26.9284 39.0611 27.0055 39.0036C27.0827 38.9461 27.1703 38.9044 27.2636 38.8808L37.3934 36.3169C37.4866 36.2933 37.5836 36.2883 37.6788 36.3022C37.774 36.3161 37.8655 36.3486 37.9481 36.3978C38.0308 36.4471 38.1029 36.5121 38.1604 36.5893C38.2178 36.6664 38.2596 36.7541 38.2832 36.8473C38.3068 36.9406 38.3118 37.0376 38.2979 37.1328C38.284 37.2279 38.2515 37.3195 38.2022 37.4021C38.153 37.4847 38.0879 37.5568 38.0108 37.6143C37.9337 37.6718 37.846 37.7135 37.7528 37.7371Z" fill="#76BEFF"/>
<path d="M48.5989 8.65019C47.9289 9.32198 47.0737 9.77857 46.1427 9.96151C44.5062 10.2819 42.9869 11.0181 41.6846 12.0483L38.4287 8.79247C38.5712 8.6112 38.7077 8.42536 38.8382 8.23524C39.6544 7.05722 40.2406 5.72929 40.5252 4.31503C40.7128 3.38365 41.1748 2.52969 41.8517 1.86298C43.7424 -0.00557506 46.8863 0.0558509 48.7052 1.99345C49.0114 2.31971 49.2706 2.68716 49.4751 3.08515C50.3971 4.88407 50.105 7.14413 48.5989 8.65019Z" fill="#A54B0E"/>
<path d="M48.133 7.2172C46.9224 8.42784 45.3394 8.4672 43.8358 9.07989C42.5946 9.58565 41.2824 10.6791 40.06 9.45665L38.8384 8.23507C39.6543 7.05733 40.2425 5.7211 40.5254 4.31485C40.8127 2.89132 41.7611 1.64366 43.0634 0.998447C45.3783 -0.148428 48.2904 0.780576 49.4754 3.08497C49.7053 4.54552 49.2578 6.09229 48.133 7.2172Z" fill="#BF6015"/>
<path d="M42.1479 14.825L42.1409 14.8319L35.6499 8.34092L35.6568 8.33399C35.8274 8.16298 36.0341 8.03229 36.2617 7.95147C36.4387 7.88776 36.6254 7.85528 36.8135 7.85547C37.2319 7.85547 37.6504 8.01426 37.9701 8.33399L42.1479 12.5117C42.6098 12.9736 42.7383 13.6435 42.5311 14.2208C42.4495 14.448 42.3187 14.6544 42.1479 14.825Z" fill="#6D2929"/>
<path d="M42.5311 14.2208L36.2617 7.95147C36.4387 7.88776 36.6254 7.85528 36.8135 7.85547C37.2319 7.85547 37.6504 8.01426 37.9701 8.33399L42.1479 12.5117C42.6098 12.9736 42.7382 13.6435 42.5311 14.2208Z" fill="#844242"/>
<path d="M40.6115 19.6071L40.0764 20.1423C39.9648 20.2544 39.8343 20.346 39.691 20.413C39.1849 20.6513 38.562 20.5614 38.1429 20.1423L30.3398 12.3393C29.9207 11.9201 29.8309 11.2973 30.0691 10.7911C30.1361 10.6478 30.2277 10.5174 30.3398 10.4058L30.875 9.87061L40.6115 19.6071Z" fill="#4D5961"/>
<path d="M40.6117 19.6071L40.0766 20.1423C39.965 20.2544 39.8345 20.346 39.6912 20.413L30.0693 10.7911C30.1363 10.6478 30.2279 10.5174 30.34 10.4058L30.8752 9.87061L40.6117 19.6071Z" fill="#454545"/>
<path d="M42.5761 20.7496C42.1866 21.0728 41.7958 21.0728 41.4064 20.7496L29.7322 9.07542C29.3171 8.66038 29.4338 8.24397 29.7529 7.88772C30.163 7.43196 30.9074 7.07561 31.2976 6.95208C32.6655 6.5177 34.1999 6.89065 35.215 7.90569L42.5761 15.2668C42.8766 15.5667 43.1256 15.9141 43.3129 16.295C44.0262 17.743 43.7811 19.5447 42.5761 20.7496Z" fill="#D88521"/>
<path d="M42.1791 19.1442C41.7896 19.4673 41.3988 19.4673 41.0094 19.1442L29.7529 7.88772C30.1631 7.43196 30.9075 7.07561 31.2977 6.95208C32.6656 6.5177 34.2 6.89065 35.215 7.90569L42.5762 15.2668C42.8767 15.5667 43.1257 15.9141 43.313 16.295C43.3413 17.3232 42.9636 18.3597 42.1791 19.1442Z" fill="#FEA832"/>
</svg>
