<svg width="22" height="22" viewBox="0 0 22 22" fill="none" xmlns="http://www.w3.org/2000/svg">
<path d="M16.7362 7.70208C17.124 7.84777 17.5564 7.65153 17.7021 7.26379C17.8478 6.87604 17.6515 6.4436 17.2638 6.29792L16.7362 7.70208ZM4.73621 6.29792C4.34847 6.4436 4.15223 6.87604 4.29792 7.26379C4.4436 7.65153 4.87604 7.84777 5.26379 7.70208L4.73621 6.29792ZM5.30341 7.34414C5.49348 7.71218 5.9459 7.85645 6.31394 7.66638C6.68197 7.47632 6.82624 7.02389 6.63617 6.65586L5.30341 7.34414ZM5.24031 5.58747L4.57393 5.93162L5.24031 5.58747ZM6.41922 2.38381L6.19315 1.66869L6.41922 2.38381ZM10.3899 1.12854L10.1638 0.413421V0.413421L10.3899 1.12854ZM11.4812 1.12854L11.2552 1.84365L11.4812 1.12854ZM15.7192 2.46833L15.4932 3.18345L15.7192 2.46833ZM16.9993 5.44734L16.2999 5.17645V5.17645L16.9993 5.44734ZM15.6985 6.72911C15.5489 7.11537 15.7407 7.54977 16.127 7.69937C16.5132 7.84898 16.9476 7.65714 17.0972 7.27089L15.6985 6.72911ZM17.4275 3.39586L16.7384 3.69195L16.7384 3.69195L17.4275 3.39586ZM4.55437 3.41103L3.85052 3.15202L3.85051 3.15202L4.55437 3.41103ZM6.75 7C6.75 6.58579 6.41421 6.25 6 6.25C5.58579 6.25 5.25 6.58579 5.25 7L6.75 7ZM8.42752 13.1028L8.03573 13.7423L8.03573 13.7423L8.42752 13.1028ZM8.94202 13.418L9.3338 12.7785L9.3338 12.7785L8.94202 13.418ZM13.058 13.418L12.6662 12.7785L13.058 13.418ZM13.5725 13.1028L13.1807 12.4633L13.5725 13.1028ZM16.75 7C16.75 6.58579 16.4142 6.25 16 6.25C15.5858 6.25 15.25 6.58579 15.25 7H16.75ZM14.7115 12.7628C14.5805 12.3699 14.1558 12.1575 13.7628 12.2885C13.3699 12.4195 13.1575 12.8442 13.2885 13.2372L14.7115 12.7628ZM13.6312 17.1954L13.1378 16.6305H13.1378L13.6312 17.1954ZM16.7341 16.578L16.497 17.2896H16.497L16.7341 16.578ZM18.6742 17.3342L18.2977 17.9829L18.2977 17.9829L18.6742 17.3342ZM20.25 21C20.25 21.4142 20.5858 21.75 21 21.75C21.4142 21.75 21.75 21.4142 21.75 21H20.25ZM19.841 18.2701L19.2894 18.7784V18.7784L19.841 18.2701ZM8.71151 13.2372C8.8425 12.8442 8.63013 12.4195 8.23717 12.2885C7.84421 12.1575 7.41947 12.3699 7.28849 12.7628L8.71151 13.2372ZM8.36884 17.1954L8.86218 16.6305L8.36884 17.1954ZM5.26586 16.578L5.02869 15.8665L5.26586 16.578ZM3.32577 17.3342L3.70228 17.9829H3.70228L3.32577 17.3342ZM0.25 21C0.25 21.4142 0.585786 21.75 1 21.75C1.41421 21.75 1.75 21.4142 1.75 21H0.25ZM2.15903 18.2701L2.71055 18.7784H2.71055L2.15903 18.2701ZM11 6.75C13.1732 6.75 15.1599 7.10982 16.7362 7.70208L17.2638 6.29792C15.4977 5.63436 13.3294 5.25 11 5.25V6.75ZM5.26379 7.70208C6.84012 7.10982 8.82681 6.75 11 6.75V5.25C8.67062 5.25 6.50231 5.63436 4.73621 6.29792L5.26379 7.70208ZM6.63617 6.65586L5.90669 5.24333L4.57393 5.93162L5.30341 7.34414L6.63617 6.65586ZM6.6453 3.09892L10.6159 1.84365L10.1638 0.413421L6.19315 1.66869L6.6453 3.09892ZM11.2552 1.84365L15.4932 3.18345L15.9453 1.75322L11.7073 0.413421L11.2552 1.84365ZM16.2999 5.17645L15.6985 6.72911L17.0972 7.27089L17.6986 5.71823L16.2999 5.17645ZM15.4932 3.18345C16.0212 3.35039 16.3355 3.45186 16.5494 3.55692C16.7354 3.64827 16.7384 3.69187 16.7384 3.69195L18.1166 3.09978C17.924 2.65147 17.5781 2.39103 17.2107 2.21057C16.8712 2.04381 16.4277 1.90571 15.9453 1.75322L15.4932 3.18345ZM17.6986 5.71823C17.8982 5.20299 18.0755 4.74924 18.1692 4.3679C18.2672 3.96919 18.3044 3.53685 18.1166 3.09978L16.7384 3.69195C16.7433 3.70327 16.7734 3.76229 16.7125 4.01005C16.6474 4.27517 16.5143 4.62296 16.2999 5.17645L17.6986 5.71823ZM10.6159 1.84365C10.7596 1.79823 10.8367 1.77418 10.8952 1.75947C10.9444 1.74708 10.9483 1.75 10.9355 1.75V0.25C10.654 0.25 10.3908 0.341658 10.1638 0.413421L10.6159 1.84365ZM11.7073 0.413421C11.4803 0.341658 11.2171 0.25 10.9355 0.25V1.75C10.9228 1.75 10.9267 1.74708 10.9759 1.75947C11.0344 1.77418 11.1115 1.79823 11.2552 1.84365L11.7073 0.413421ZM5.90669 5.24333C5.60732 4.66365 5.41933 4.29609 5.31842 4.01293C5.22353 3.74667 5.25395 3.68167 5.25823 3.67005L3.85051 3.15202C3.67253 3.6357 3.75652 4.09853 3.90546 4.51648C4.04839 4.91752 4.29449 5.39054 4.57393 5.93162L5.90669 5.24333ZM6.19315 1.66869C5.6562 1.83844 5.16872 1.9903 4.80093 2.17293C4.40521 2.36943 4.03306 2.65595 3.85052 3.15202L5.25823 3.67005C5.26295 3.65721 5.2673 3.64879 5.28403 3.63275C5.30708 3.61064 5.35825 3.57094 5.46806 3.51641C5.70671 3.3979 6.06052 3.28379 6.6453 3.09892L6.19315 1.66869ZM5.25 7V8.72517L6.75 8.72517V7L5.25 7ZM8.03573 13.7423L8.55023 14.0575L9.3338 12.7785L8.81931 12.4633L8.03573 13.7423ZM13.4498 14.0575L13.9643 13.7423L13.1807 12.4633L12.6662 12.7785L13.4498 14.0575ZM16.75 8.72517V7H15.25V8.72517H16.75ZM13.9643 13.7423C15.697 12.6808 16.75 10.7745 16.75 8.72517H15.25C15.25 10.2623 14.46 11.6795 13.1807 12.4633L13.9643 13.7423ZM8.55023 14.0575C10.0574 14.9808 11.9426 14.9808 13.4498 14.0575L12.6662 12.7785C11.6399 13.4072 10.3601 13.4072 9.3338 12.7785L8.55023 14.0575ZM5.25 8.72517C5.25 10.7745 6.30301 12.6808 8.03573 13.7423L8.81931 12.4633C7.53997 11.6795 6.75 10.2623 6.75 8.72517L5.25 8.72517ZM13.2885 13.2372L14.2885 16.2372L15.7115 15.7628L14.7115 12.7628L13.2885 13.2372ZM14.5067 15.4351L13.1378 16.6305L14.1245 17.7603L15.4933 16.5649L14.5067 15.4351ZM14.7628 16.7115L16.497 17.2896L16.9713 15.8665L15.2372 15.2885L14.7628 16.7115ZM16.497 17.2896C17.5239 17.6319 17.9366 17.7732 18.2977 17.9829L19.0507 16.6856C18.5259 16.3809 17.9405 16.1896 16.9713 15.8665L16.497 17.2896ZM21.75 21C21.75 20.3299 21.4884 19.6188 21.2261 19.0753C20.9613 18.5268 20.6337 18.0236 20.3925 17.7619L19.2894 18.7784C19.3953 18.8933 19.6473 19.2551 19.8752 19.7274C20.1056 20.2046 20.25 20.6701 20.25 21H21.75ZM18.2977 17.9829C18.6663 18.1968 19.0006 18.465 19.2894 18.7784L20.3925 17.7619C20.0017 17.3379 19.5494 16.975 19.0507 16.6856L18.2977 17.9829ZM7.28849 12.7628L6.28849 15.7628L7.71151 16.2372L8.71151 13.2372L7.28849 12.7628ZM6.50666 16.5649L7.87549 17.7603L8.86218 16.6305L7.49334 15.4351L6.50666 16.5649ZM6.76283 15.2885L5.02869 15.8665L5.50303 17.2896L7.23717 16.7115L6.76283 15.2885ZM5.02869 15.8665C4.05952 16.1896 3.47409 16.3809 2.94926 16.6856L3.70228 17.9829C4.06345 17.7732 4.47608 17.6319 5.50303 17.2896L5.02869 15.8665ZM1.75 21C1.75 20.6701 1.8944 20.2046 2.12477 19.7274C2.35272 19.2551 2.60465 18.8933 2.71055 18.7784L1.60751 17.7619C1.36629 18.0236 1.0387 18.5268 0.773921 19.0753C0.511561 19.6188 0.25 20.3299 0.25 21H1.75ZM2.94926 16.6856C2.45057 16.975 1.99826 17.3379 1.60751 17.7619L2.71055 18.7784C2.99937 18.465 3.33369 18.1968 3.70228 17.9829L2.94926 16.6856ZM13.1378 16.6305C12.4961 17.191 12.0671 17.5638 11.7084 17.8049C11.3673 18.0342 11.1693 18.088 11 18.088L11 19.588C11.5811 19.588 12.0718 19.368 12.5452 19.0498C13.001 18.7434 13.5124 18.2949 14.1245 17.7603L13.1378 16.6305ZM7.87549 17.7603C8.48764 18.2949 8.99898 18.7434 9.45481 19.0498C9.92822 19.368 10.4189 19.588 11 19.588L11 18.088C10.8307 18.088 10.6327 18.0342 10.2916 17.8049C9.93293 17.5638 9.50389 17.191 8.86218 16.6305L7.87549 17.7603Z" fill="#8F9695"/>
</svg>
