<svg width="22" height="22" viewBox="0 0 22 22" fill="none" xmlns="http://www.w3.org/2000/svg">
<path d="M11.663 7C11.663 6.58579 11.3273 6.25 10.913 6.25C10.4988 6.25 10.163 6.58579 10.163 7L11.663 7ZM10.163 15C10.163 15.4142 10.4988 15.75 10.913 15.75C11.3273 15.75 11.663 15.4142 11.663 15H10.163ZM11.9583 9.12963C12.1876 9.47453 12.6532 9.56817 12.9981 9.33878C13.343 9.10939 13.4366 8.64384 13.2072 8.29894L11.9583 9.12963ZM9.78331 12.9455C9.49374 12.6493 9.01889 12.644 8.72272 12.9335C8.42654 13.2231 8.42118 13.698 8.71076 13.9941L9.78331 12.9455ZM20.647 13.5943L21.3699 13.7941L20.647 13.5943ZM13.3334 1.34477L13.522 0.618873V0.618873L13.3334 1.34477ZM1 7.45417L0.301099 7.18207C0.214098 7.40554 0.239204 7.65713 0.368646 7.859C0.498088 8.06087 0.716259 8.18867 0.955644 8.20285L1 7.45417ZM3.53515 8.35567C3.94864 8.38017 4.30369 8.06483 4.32819 7.65134C4.35269 7.23785 4.03735 6.8828 3.62386 6.8583L3.53515 8.35567ZM10.8364 20.2501C10.4222 20.2565 10.0916 20.5974 10.098 21.0116C10.1044 21.4257 10.4454 21.7563 10.8595 21.7499L10.8364 20.2501ZM11 21.75C11.4142 21.75 11.75 21.4142 11.75 21C11.75 20.5858 11.4142 20.25 11 20.25V21.75ZM1.75 10C1.75 9.58579 1.41421 9.25 1 9.25C0.585786 9.25 0.25 9.58579 0.25 10H1.75ZM10.913 10.1349C10.2789 10.1349 10.0019 10.0177 9.89231 9.93341C9.82698 9.88311 9.75 9.79382 9.75 9.50223H8.25C8.25 10.1016 8.43389 10.7036 8.97725 11.122C9.47641 11.5063 10.1559 11.6349 10.913 11.6349V10.1349ZM9.75 9.50223C9.75 9.14026 10.1458 8.63906 10.913 8.63906V7.13906C9.56721 7.13906 8.25 8.08234 8.25 9.50223H9.75ZM12.25 12.4981C12.25 12.8378 12.1295 13.0051 11.9643 13.1185C11.7586 13.2597 11.4071 13.3613 10.913 13.3613V14.8613C11.5716 14.8613 12.2636 14.7324 12.8132 14.3551C13.4033 13.95 13.75 13.3107 13.75 12.4981H12.25ZM10.913 11.6349C11.5544 11.6349 11.8772 11.7468 12.03 11.8608C12.1339 11.9382 12.25 12.0822 12.25 12.4981H13.75C13.75 11.7617 13.5182 11.0992 12.9265 10.6581C12.3837 10.2535 11.663 10.1349 10.913 10.1349V11.6349ZM11.663 7.88906L11.663 7L10.163 7L10.163 7.88906L11.663 7.88906ZM10.163 14.1113V15H11.663V14.1113H10.163ZM10.913 8.63906C11.4077 8.63906 11.7849 8.86893 11.9583 9.12963L13.2072 8.29894C12.7256 7.57477 11.8527 7.13906 10.913 7.13906V8.63906ZM10.913 13.3613C10.4081 13.3613 10.0058 13.1731 9.78331 12.9455L8.71076 13.9941C9.25016 14.5458 10.0569 14.8613 10.913 14.8613V13.3613ZM21.3699 13.7941C22.9605 8.03756 19.4195 2.1513 13.522 0.618873L13.1448 2.07066C18.2727 3.40313 21.2805 8.4855 19.9241 13.3946L21.3699 13.7941ZM13.522 0.618873C7.99027 -0.818547 2.29257 2.06682 0.301099 7.18207L1.6989 7.72626C3.40542 3.34294 8.32501 0.818249 13.1448 2.07066L13.522 0.618873ZM0.955644 8.20285L3.53515 8.35567L3.62386 6.8583L1.04436 6.70548L0.955644 8.20285ZM10.8595 21.7499C10.8738 21.7497 10.8881 21.7494 10.9023 21.7492L10.8736 20.2494C10.8612 20.2497 10.8488 20.2499 10.8364 20.2501L10.8595 21.7499ZM10.9023 21.7492C15.6903 21.6573 20.0603 18.5338 21.3699 13.7941L19.9241 13.3946C18.8035 17.4502 15.0447 20.1694 10.8736 20.2494L10.9023 21.7492ZM11 20.25C10.9657 20.25 10.9314 20.2498 10.8972 20.2494L10.8787 21.7493C10.9191 21.7498 10.9595 21.75 11 21.75V20.25ZM10.8972 20.2494C5.92473 20.1879 1.75 15.6178 1.75 10H0.25C0.25 16.3006 4.9533 21.676 10.8787 21.7493L10.8972 20.2494Z" fill="#55A36E"/>
</svg>
