<svg width="16" height="16" viewBox="0 0 16 16" fill="none" xmlns="http://www.w3.org/2000/svg">
<path d="M9.33325 9.33398L10.9999 11.0007M14.3778 14.3785C13.9926 14.7636 13.3682 14.7636 12.9831 14.3785L10.9554 12.3508C10.5703 11.9657 10.5703 11.3413 10.9554 10.9562C11.3405 10.571 11.9649 10.571 12.35 10.9562L14.3778 12.9839C14.7629 13.369 14.7629 13.9934 14.3778 14.3785ZM10.6666 6.00065C10.6666 3.42332 8.57725 1.33398 5.99992 1.33398C3.42259 1.33398 1.33325 3.42332 1.33325 6.00065C1.33325 8.57798 3.42259 10.6673 5.99992 10.6673C8.57725 10.6673 10.6666 8.57798 10.6666 6.00065Z" stroke="#8F9695" stroke-width="1.5" stroke-linejoin="round"/>
</svg>
